0
SECTION
2
HEADER
9
$INSUNITS
70
4
9
$INSBASE
10
0.0
20
0.0
30
0.0
9
$EXTMIN
10
0
20
0
9
$EXTMAX
10
266.64375
20
95.22500000000001
0
ENDSEC
0
SECTION
2
TABLES
0
TABLE
2
LTYPE
70
1
0
LTYPE
2
CONTINUOUS
70
64
3
Solid line
72
65
73
0
40
0.0
0
ENDTAB
0
TABLE
2
LAYER
70
1
0
LAYER
2
Layer1
70
64
62
7
6
CONTINUOUS
0
ENDTAB
0
TABLE
2
STYLE
70
0
0
ENDTAB
0
TABLE
2
VIEW
70
0
0
ENDTAB
0
ENDSEC
0
SECTION
2
BLOCKS
0
ENDSEC
0
SECTION
2
ENTITIES
0
POLYLINE
5
10
8
Layer1
66
1
10
0.0
20
0.0
30
0.0
70
1
0
VERTEX
5
11
8
Layer1
10
0.0000
20
0.0000
30
0.0
0
VERTEX
5
12
8
Layer1
10
266.6438
20
0.0000
30
0.0
0
VERTEX
5
13
8
Layer1
10
266.6438
20
95.2250
30
0.0
0
VERTEX
5
14
8
Layer1
10
0.0000
20
95.2250
30
0.0
0
VERTEX
5
15
8
Layer1
10
0.0000
20
0.0000
30
0.0
0
SEQEND
5
16
8
Layer1
0
POLYLINE
5
17
8
Layer1
66
1
10
0.0
20
0.0
30
0.0
70
1
0
VERTEX
5
18
8
Layer1
10
26.0500
20
60.6500
30
0.0
0
VERTEX
5
19
8
Layer1
10
26.8500
20
60.6500
30
0.0
0
VERTEX
5
1a
8
Layer1
10
26.8500
20
64.1500
30
0.0
0
VERTEX
5
1b
8
Layer1
10
26.0500
20
64.1500
30
0.0
0
VERTEX
5
1c
8
Layer1
10
26.0500
20
69.1500
30
0.0
0
VERTEX
5
1d
8
Layer1
10
26.8500
20
69.1500
30
0.0
0
VERTEX
5
1e
8
Layer1
10
26.8500
20
72.6500
30
0.0
0
VERTEX
5
1f
8
Layer1
10
26.0500
20
72.6500
30
0.0
0
VERTEX
5
20
8
Layer1
10
26.0500
20
73.6500
30
0.0
0
VERTEX
5
21
8
Layer1
10
12.0500
20
73.6500
30
0.0
0
VERTEX
5
22
8
Layer1
10
12.0500
20
72.6500
30
0.0
0
VERTEX
5
23
8
Layer1
10
11.2500
20
72.6500
30
0.0
0
VERTEX
5
24
8
Layer1
10
11.2500
20
69.1500
30
0.0
0
VERTEX
5
25
8
Layer1
10
12.0500
20
69.1500
30
0.0
0
VERTEX
5
26
8
Layer1
10
12.0500
20
64.1500
30
0.0
0
VERTEX
5
27
8
Layer1
10
11.2500
20
64.1500
30
0.0
0
VERTEX
5
28
8
Layer1
10
11.2500
20
60.6500
30
0.0
0
VERTEX
5
29
8
Layer1
10
12.0500
20
60.6500
30
0.0
0
VERTEX
5
2a
8
Layer1
10
12.0500
20
59.6500
30
0.0
0
VERTEX
5
2b
8
Layer1
10
26.0500
20
59.6500
30
0.0
0
VERTEX
5
2c
8
Layer1
10
26.0500
20
60.6500
30
0.0
0
SEQEND
5
2d
8
Layer1
0
POLYLINE
5
2e
8
Layer1
66
1
10
0.0
20
0.0
30
0.0
70
1
0
VERTEX
5
2f
8
Layer1
10
45.1000
20
60.6500
30
0.0
0
VERTEX
5
30
8
Layer1
10
45.9000
20
60.6500
30
0.0
0
VERTEX
5
31
8
Layer1
10
45.9000
20
64.1500
30
0.0
0
VERTEX
5
32
8
Layer1
10
45.1000
20
64.1500
30
0.0
0
VERTEX
5
33
8
Layer1
10
45.1000
20
69.1500
30
0.0
0
VERTEX
5
34
8
Layer1
10
45.9000
20
69.1500
30
0.0
0
VERTEX
5
35
8
Layer1
10
45.9000
20
72.6500
30
0.0
0
VERTEX
5
36
8
Layer1
10
45.1000
20
72.6500
30
0.0
0
VERTEX
5
37
8
Layer1
10
45.1000
20
73.6500
30
0.0
0
VERTEX
5
38
8
Layer1
10
31.1000
20
73.6500
30
0.0
0
VERTEX
5
39
8
Layer1
10
31.1000
20
72.6500
30
0.0
0
VERTEX
5
3a
8
Layer1
10
30.3000
20
72.6500
30
0.0
0
VERTEX
5
3b
8
Layer1
10
30.3000
20
69.1500
30
0.0
0
VERTEX
5
3c
8
Layer1
10
31.1000
20
69.1500
30
0.0
0
VERTEX
5
3d
8
Layer1
10
31.1000
20
64.1500
30
0.0
0
VERTEX
5
3e
8
Layer1
10
30.3000
20
64.1500
30
0.0
0
VERTEX
5
3f
8
Layer1
10
30.3000
20
60.6500
30
0.0
0
VERTEX
5
40
8
Layer1
10
31.1000
20
60.6500
30
0.0
0
VERTEX
5
41
8
Layer1
10
31.1000
20
59.6500
30
0.0
0
VERTEX
5
42
8
Layer1
10
45.1000
20
59.6500
30
0.0
0
VERTEX
5
43
8
Layer1
10
45.1000
20
60.6500
30
0.0
0
SEQEND
5
44
8
Layer1
0
POLYLINE
5
45
8
Layer1
66
1
10
0.0
20
0.0
30
0.0
70
1
0
VERTEX
5
46
8
Layer1
10
64.1500
20
60.6500
30
0.0
0
VERTEX
5
47
8
Layer1
10
64.9500
20
60.6500
30
0.0
0
VERTEX
5
48
8
Layer1
10
64.9500
20
64.1500
30
0.0
0
VERTEX
5
49
8
Layer1
10
64.1500
20
64.1500
30
0.0
0
VERTEX
5
4a
8
Layer1
10
64.1500
20
69.1500
30
0.0
0
VERTEX
5
4b
8
Layer1
10
64.9500
20
69.1500
30
0.0
0
VERTEX
5
4c
8
Layer1
10
64.9500
20
72.6500
30
0.0
0
VERTEX
5
4d
8
Layer1
10
64.1500
20
72.6500
30
0.0
0
VERTEX
5
4e
8
Layer1
10
64.1500
20
73.6500
30
0.0
0
VERTEX
5
4f
8
Layer1
10
50.1500
20
73.6500
30
0.0
0
VERTEX
5
50
8
Layer1
10
50.1500
20
72.6500
30
0.0
0
VERTEX
5
51
8
Layer1
10
49.3500
20
72.6500
30
0.0
0
VERTEX
5
52
8
Layer1
10
49.3500
20
69.1500
30
0.0
0
VERTEX
5
53
8
Layer1
10
50.1500
20
69.1500
30
0.0
0
VERTEX
5
54
8
Layer1
10
50.1500
20
64.1500
30
0.0
0
VERTEX
5
55
8
Layer1
10
49.3500
20
64.1500
30
0.0
0
VERTEX
5
56
8
Layer1
10
49.3500
20
60.6500
30
0.0
0
VERTEX
5
57
8
Layer1
10
50.1500
20
60.6500
30
0.0
0
VERTEX
5
58
8
Layer1
10
50.1500
20
59.6500
30
0.0
0
VERTEX
5
59
8
Layer1
10
64.1500
20
59.6500
30
0.0
0
VERTEX
5
5a
8
Layer1
10
64.1500
20
60.6500
30
0.0
0
SEQEND
5
5b
8
Layer1
0
POLYLINE
5
5c
8
Layer1
66
1
10
0.0
20
0.0
30
0.0
70
1
0
VERTEX
5
5d
8
Layer1
10
83.2000
20
60.6500
30
0.0
0
VERTEX
5
5e
8
Layer1
10
84.0000
20
60.6500
30
0.0
0
VERTEX
5
5f
8
Layer1
10
84.0000
20
64.1500
30
0.0
0
VERTEX
5
60
8
Layer1
10
83.2000
20
64.1500
30
0.0
0
VERTEX
5
61
8
Layer1
10
83.2000
20
69.1500
30
0.0
0
VERTEX
5
62
8
Layer1
10
84.0000
20
69.1500
30
0.0
0
VERTEX
5
63
8
Layer1
10
84.0000
20
72.6500
30
0.0
0
VERTEX
5
64
8
Layer1
10
83.2000
20
72.6500
30
0.0
0
VERTEX
5
65
8
Layer1
10
83.2000
20
73.6500
30
0.0
0
VERTEX
5
66
8
Layer1
10
69.2000
20
73.6500
30
0.0
0
VERTEX
5
67
8
Layer1
10
69.2000
20
72.6500
30
0.0
0
VERTEX
5
68
8
Layer1
10
68.4000
20
72.6500
30
0.0
0
VERTEX
5
69
8
Layer1
10
68.4000
20
69.1500
30
0.0
0
VERTEX
5
6a
8
Layer1
10
69.2000
20
69.1500
30
0.0
0
VERTEX
5
6b
8
Layer1
10
69.2000
20
64.1500
30
0.0
0
VERTEX
5
6c
8
Layer1
10
68.4000
20
64.1500
30
0.0
0
VERTEX
5
6d
8
Layer1
10
68.4000
20
60.6500
30
0.0
0
VERTEX
5
6e
8
Layer1
10
69.2000
20
60.6500
30
0.0
0
VERTEX
5
6f
8
Layer1
10
69.2000
20
59.6500
30
0.0
0
VERTEX
5
70
8
Layer1
10
83.2000
20
59.6500
30
0.0
0
VERTEX
5
71
8
Layer1
10
83.2000
20
60.6500
30
0.0
0
SEQEND
5
72
8
Layer1
0
POLYLINE
5
73
8
Layer1
66
1
10
0.0
20
0.0
30
0.0
70
1
0
VERTEX
5
74
8
Layer1
10
102.2500
20
60.6500
30
0.0
0
VERTEX
5
75
8
Layer1
10
103.0500
20
60.6500
30
0.0
0
VERTEX
5
76
8
Layer1
10
103.0500
20
64.1500
30
0.0
0
VERTEX
5
77
8
Layer1
10
102.2500
20
64.1500
30
0.0
0
VERTEX
5
78
8
Layer1
10
102.2500
20
69.1500
30
0.0
0
VERTEX
5
79
8
Layer1
10
103.0500
20
69.1500
30
0.0
0
VERTEX
5
7a
8
Layer1
10
103.0500
20
72.6500
30
0.0
0
VERTEX
5
7b
8
Layer1
10
102.2500
20
72.6500
30
0.0
0
VERTEX
5
7c
8
Layer1
10
102.2500
20
73.6500
30
0.0
0
VERTEX
5
7d
8
Layer1
10
88.2500
20
73.6500
30
0.0
0
VERTEX
5
7e
8
Layer1
10
88.2500
20
72.6500
30
0.0
0
VERTEX
5
7f
8
Layer1
10
87.4500
20
72.6500
30
0.0
0
VERTEX
5
80
8
Layer1
10
87.4500
20
69.1500
30
0.0
0
VERTEX
5
81
8
Layer1
10
88.2500
20
69.1500
30
0.0
0
VERTEX
5
82
8
Layer1
10
88.2500
20
64.1500
30
0.0
0
VERTEX
5
83
8
Layer1
10
87.4500
20
64.1500
30
0.0
0
VERTEX
5
84
8
Layer1
10
87.4500
20
60.6500
30
0.0
0
VERTEX
5
85
8
Layer1
10
88.2500
20
60.6500
30
0.0
0
VERTEX
5
86
8
Layer1
10
88.2500
20
59.6500
30
0.0
0
VERTEX
5
87
8
Layer1
10
102.2500
20
59.6500
30
0.0
0
VERTEX
5
88
8
Layer1
10
102.2500
20
60.6500
30
0.0
0
SEQEND
5
89
8
Layer1
0
POLYLINE
5
8a
8
Layer1
66
1
10
0.0
20
0.0
30
0.0
70
1
0
VERTEX
5
8b
8
Layer1
10
121.3000
20
60.6500
30
0.0
0
VERTEX
5
8c
8
Layer1
10
122.1000
20
60.6500
30
0.0
0
VERTEX
5
8d
8
Layer1
10
122.1000
20
64.1500
30
0.0
0
VERTEX
5
8e
8
Layer1
10
121.3000
20
64.1500
30
0.0
0
VERTEX
5
8f
8
Layer1
10
121.3000
20
69.1500
30
0.0
0
VERTEX
5
90
8
Layer1
10
122.1000
20
69.1500
30
0.0
0
VERTEX
5
91
8
Layer1
10
122.1000
20
72.6500
30
0.0
0
VERTEX
5
92
8
Layer1
10
121.3000
20
72.6500
30
0.0
0
VERTEX
5
93
8
Layer1
10
121.3000
20
73.6500
30
0.0
0
VERTEX
5
94
8
Layer1
10
107.3000
20
73.6500
30
0.0
0
VERTEX
5
95
8
Layer1
10
107.3000
20
72.6500
30
0.0
0
VERTEX
5
96
8
Layer1
10
106.5000
20
72.6500
30
0.0
0
VERTEX
5
97
8
Layer1
10
106.5000
20
69.1500
30
0.0
0
VERTEX
5
98
8
Layer1
10
107.3000
20
69.1500
30
0.0
0
VERTEX
5
99
8
Layer1
10
107.3000
20
64.1500
30
0.0
0
VERTEX
5
9a
8
Layer1
10
106.5000
20
64.1500
30
0.0
0
VERTEX
5
9b
8
Layer1
10
106.5000
20
60.6500
30
0.0
0
VERTEX
5
9c
8
Layer1
10
107.3000
20
60.6500
30
0.0
0
VERTEX
5
9d
8
Layer1
10
107.3000
20
59.6500
30
0.0
0
VERTEX
5
9e
8
Layer1
10
121.3000
20
59.6500
30
0.0
0
VERTEX
5
9f
8
Layer1
10
121.3000
20
60.6500
30
0.0
0
SEQEND
5
a0
8
Layer1
0
POLYLINE
5
a1
8
Layer1
66
1
10
0.0
20
0.0
30
0.0
70
1
0
VERTEX
5
a2
8
Layer1
10
140.3500
20
60.6500
30
0.0
0
VERTEX
5
a3
8
Layer1
10
141.1500
20
60.6500
30
0.0
0
VERTEX
5
a4
8
Layer1
10
141.1500
20
64.1500
30
0.0
0
VERTEX
5
a5
8
Layer1
10
140.3500
20
64.1500
30
0.0
0
VERTEX
5
a6
8
Layer1
10
140.3500
20
69.1500
30
0.0
0
VERTEX
5
a7
8
Layer1
10
141.1500
20
69.1500
30
0.0
0
VERTEX
5
a8
8
Layer1
10
141.1500
20
72.6500
30
0.0
0
VERTEX
5
a9
8
Layer1
10
140.3500
20
72.6500
30
0.0
0
VERTEX
5
aa
8
Layer1
10
140.3500
20
73.6500
30
0.0
0
VERTEX
5
ab
8
Layer1
10
126.3500
20
73.6500
30
0.0
0
VERTEX
5
ac
8
Layer1
10
126.3500
20
72.6500
30
0.0
0
VERTEX
5
ad
8
Layer1
10
125.5500
20
72.6500
30
0.0
0
VERTEX
5
ae
8
Layer1
10
125.5500
20
69.1500
30
0.0
0
VERTEX
5
af
8
Layer1
10
126.3500
20
69.1500
30
0.0
0
VERTEX
5
b0
8
Layer1
10
126.3500
20
64.1500
30
0.0
0
VERTEX
5
b1
8
Layer1
10
125.5500
20
64.1500
30
0.0
0
VERTEX
5
b2
8
Layer1
10
125.5500
20
60.6500
30
0.0
0
VERTEX
5
b3
8
Layer1
10
126.3500
20
60.6500
30
0.0
0
VERTEX
5
b4
8
Layer1
10
126.3500
20
59.6500
30
0.0
0
VERTEX
5
b5
8
Layer1
10
140.3500
20
59.6500
30
0.0
0
VERTEX
5
b6
8
Layer1
10
140.3500
20
60.6500
30
0.0
0
SEQEND
5
b7
8
Layer1
0
POLYLINE
5
b8
8
Layer1
66
1
10
0.0
20
0.0
30
0.0
70
1
0
VERTEX
5
b9
8
Layer1
10
159.4000
20
60.6500
30
0.0
0
VERTEX
5
ba
8
Layer1
10
160.2000
20
60.6500
30
0.0
0
VERTEX
5
bb
8
Layer1
10
160.2000
20
64.1500
30
0.0
0
VERTEX
5
bc
8
Layer1
10
159.4000
20
64.1500
30
0.0
0
VERTEX
5
bd
8
Layer1
10
159.4000
20
69.1500
30
0.0
0
VERTEX
5
be
8
Layer1
10
160.2000
20
69.1500
30
0.0
0
VERTEX
5
bf
8
Layer1
10
160.2000
20
72.6500
30
0.0
0
VERTEX
5
c0
8
Layer1
10
159.4000
20
72.6500
30
0.0
0
VERTEX
5
c1
8
Layer1
10
159.4000
20
73.6500
30
0.0
0
VERTEX
5
c2
8
Layer1
10
145.4000
20
73.6500
30
0.0
0
VERTEX
5
c3
8
Layer1
10
145.4000
20
72.6500
30
0.0
0
VERTEX
5
c4
8
Layer1
10
144.6000
20
72.6500
30
0.0
0
VERTEX
5
c5
8
Layer1
10
144.6000
20
69.1500
30
0.0
0
VERTEX
5
c6
8
Layer1
10
145.4000
20
69.1500
30
0.0
0
VERTEX
5
c7
8
Layer1
10
145.4000
20
64.1500
30
0.0
0
VERTEX
5
c8
8
Layer1
10
144.6000
20
64.1500
30
0.0
0
VERTEX
5
c9
8
Layer1
10
144.6000
20
60.6500
30
0.0
0
VERTEX
5
ca
8
Layer1
10
145.4000
20
60.6500
30
0.0
0
VERTEX
5
cb
8
Layer1
10
145.4000
20
59.6500
30
0.0
0
VERTEX
5
cc
8
Layer1
10
159.4000
20
59.6500
30
0.0
0
VERTEX
5
cd
8
Layer1
10
159.4000
20
60.6500
30
0.0
0
SEQEND
5
ce
8
Layer1
0
POLYLINE
5
cf
8
Layer1
66
1
10
0.0
20
0.0
30
0.0
70
1
0
VERTEX
5
d0
8
Layer1
10
178.4500
20
60.6500
30
0.0
0
VERTEX
5
d1
8
Layer1
10
179.2500
20
60.6500
30
0.0
0
VERTEX
5
d2
8
Layer1
10
179.2500
20
64.1500
30
0.0
0
VERTEX
5
d3
8
Layer1
10
178.4500
20
64.1500
30
0.0
0
VERTEX
5
d4
8
Layer1
10
178.4500
20
69.1500
30
0.0
0
VERTEX
5
d5
8
Layer1
10
179.2500
20
69.1500
30
0.0
0
VERTEX
5
d6
8
Layer1
10
179.2500
20
72.6500
30
0.0
0
VERTEX
5
d7
8
Layer1
10
178.4500
20
72.6500
30
0.0
0
VERTEX
5
d8
8
Layer1
10
178.4500
20
73.6500
30
0.0
0
VERTEX
5
d9
8
Layer1
10
164.4500
20
73.6500
30
0.0
0
VERTEX
5
da
8
Layer1
10
164.4500
20
72.6500
30
0.0
0
VERTEX
5
db
8
Layer1
10
163.6500
20
72.6500
30
0.0
0
VERTEX
5
dc
8
Layer1
10
163.6500
20
69.1500
30
0.0
0
VERTEX
5
dd
8
Layer1
10
164.4500
20
69.1500
30
0.0
0
VERTEX
5
de
8
Layer1
10
164.4500
20
64.1500
30
0.0
0
VERTEX
5
df
8
Layer1
10
163.6500
20
64.1500
30
0.0
0
VERTEX
5
e0
8
Layer1
10
163.6500
20
60.6500
30
0.0
0
VERTEX
5
e1
8
Layer1
10
164.4500
20
60.6500
30
0.0
0
VERTEX
5
e2
8
Layer1
10
164.4500
20
59.6500
30
0.0
0
VERTEX
5
e3
8
Layer1
10
178.4500
20
59.6500
30
0.0
0
VERTEX
5
e4
8
Layer1
10
178.4500
20
60.6500
30
0.0
0
SEQEND
5
e5
8
Layer1
0
POLYLINE
5
e6
8
Layer1
66
1
10
0.0
20
0.0
30
0.0
70
1
0
VERTEX
5
e7
8
Layer1
10
197.5000
20
60.6500
30
0.0
0
VERTEX
5
e8
8
Layer1
10
198.3000
20
60.6500
30
0.0
0
VERTEX
5
e9
8
Layer1
10
198.3000
20
64.1500
30
0.0
0
VERTEX
5
ea
8
Layer1
10
197.5000
20
64.1500
30
0.0
0
VERTEX
5
eb
8
Layer1
10
197.5000
20
69.1500
30
0.0
0
VERTEX
5
ec
8
Layer1
10
198.3000
20
69.1500
30
0.0
0
VERTEX
5
ed
8
Layer1
10
198.3000
20
72.6500
30
0.0
0
VERTEX
5
ee
8
Layer1
10
197.5000
20
72.6500
30
0.0
0
VERTEX
5
ef
8
Layer1
10
197.5000
20
73.6500
30
0.0
0
VERTEX
5
f0
8
Layer1
10
183.5000
20
73.6500
30
0.0
0
VERTEX
5
f1
8
Layer1
10
183.5000
20
72.6500
30
0.0
0
VERTEX
5
f2
8
Layer1
10
182.7000
20
72.6500
30
0.0
0
VERTEX
5
f3
8
Layer1
10
182.7000
20
69.1500
30
0.0
0
VERTEX
5
f4
8
Layer1
10
183.5000
20
69.1500
30
0.0
0
VERTEX
5
f5
8
Layer1
10
183.5000
20
64.1500
30
0.0
0
VERTEX
5
f6
8
Layer1
10
182.7000
20
64.1500
30
0.0
0
VERTEX
5
f7
8
Layer1
10
182.7000
20
60.6500
30
0.0
0
VERTEX
5
f8
8
Layer1
10
183.5000
20
60.6500
30
0.0
0
VERTEX
5
f9
8
Layer1
10
183.5000
20
59.6500
30
0.0
0
VERTEX
5
fa
8
Layer1
10
197.5000
20
59.6500
30
0.0
0
VERTEX
5
fb
8
Layer1
10
197.5000
20
60.6500
30
0.0
0
SEQEND
5
fc
8
Layer1
0
POLYLINE
5
fd
8
Layer1
66
1
10
0.0
20
0.0
30
0.0
70
1
0
VERTEX
5
fe
8
Layer1
10
216.5500
20
60.6500
30
0.0
0
VERTEX
5
ff
8
Layer1
10
217.3500
20
60.6500
30
0.0
0
VERTEX
5
100
8
Layer1
10
217.3500
20
64.1500
30
0.0
0
VERTEX
5
101
8
Layer1
10
216.5500
20
64.1500
30
0.0
0
VERTEX
5
102
8
Layer1
10
216.5500
20
69.1500
30
0.0
0
VERTEX
5
103
8
Layer1
10
217.3500
20
69.1500
30
0.0
0
VERTEX
5
104
8
Layer1
10
217.3500
20
72.6500
30
0.0
0
VERTEX
5
105
8
Layer1
10
216.5500
20
72.6500
30
0.0
0
VERTEX
5
106
8
Layer1
10
216.5500
20
73.6500
30
0.0
0
VERTEX
5
107
8
Layer1
10
202.5500
20
73.6500
30
0.0
0
VERTEX
5
108
8
Layer1
10
202.5500
20
72.6500
30
0.0
0
VERTEX
5
109
8
Layer1
10
201.7500
20
72.6500
30
0.0
0
VERTEX
5
10a
8
Layer1
10
201.7500
20
69.1500
30
0.0
0
VERTEX
5
10b
8
Layer1
10
202.5500
20
69.1500
30
0.0
0
VERTEX
5
10c
8
Layer1
10
202.5500
20
64.1500
30
0.0
0
VERTEX
5
10d
8
Layer1
10
201.7500
20
64.1500
30
0.0
0
VERTEX
5
10e
8
Layer1
10
201.7500
20
60.6500
30
0.0
0
VERTEX
5
10f
8
Layer1
10
202.5500
20
60.6500
30
0.0
0
VERTEX
5
110
8
Layer1
10
202.5500
20
59.6500
30
0.0
0
VERTEX
5
111
8
Layer1
10
216.5500
20
59.6500
30
0.0
0
VERTEX
5
112
8
Layer1
10
216.5500
20
60.6500
30
0.0
0
SEQEND
5
113
8
Layer1
0
POLYLINE
5
114
8
Layer1
66
1
10
0.0
20
0.0
30
0.0
70
1
0
VERTEX
5
115
8
Layer1
10
227.7250
20
59.8800
30
0.0
0
VERTEX
5
116
8
Layer1
10
229.5500
20
59.8800
30
0.0
0
VERTEX
5
117
8
Layer1
10
229.5500
20
60.6800
30
0.0
0
VERTEX
5
118
8
Layer1
10
230.3250
20
60.6800
30
0.0
0
VERTEX
5
119
8
Layer1
10
230.3250
20
60.6500
30
0.0
0
VERTEX
5
11a
8
Layer1
10
231.1250
20
60.6500
30
0.0
0
VERTEX
5
11b
8
Layer1
10
231.1250
20
59.6500
30
0.0
0
VERTEX
5
11c
8
Layer1
10
245.1250
20
59.6500
30
0.0
0
VERTEX
5
11d
8
Layer1
10
245.1250
20
60.6500
30
0.0
0
VERTEX
5
11e
8
Layer1
10
245.9250
20
60.6500
30
0.0
0
VERTEX
5
11f
8
Layer1
10
245.9250
20
60.6800
30
0.0
0
VERTEX
5
120
8
Layer1
10
246.7000
20
60.6800
30
0.0
0
VERTEX
5
121
8
Layer1
10
246.7000
20
59.8800
30
0.0
0
VERTEX
5
122
8
Layer1
10
248.5250
20
59.8800
30
0.0
0
VERTEX
5
123
8
Layer1
10
248.5250
20
58.6800
30
0.0
0
VERTEX
5
124
8
Layer1
10
251.5250
20
58.6800
30
0.0
0
VERTEX
5
125
8
Layer1
10
251.5250
20
59.8800
30
0.0
0
VERTEX
5
126
8
Layer1
10
253.3500
20
59.8800
30
0.0
0
VERTEX
5
127
8
Layer1
10
253.3500
20
66.1500
30
0.0
0
VERTEX
5
128
8
Layer1
10
254.2250
20
66.1500
30
0.0
0
VERTEX
5
129
8
Layer1
10
254.2250
20
68.9500
30
0.0
0
VERTEX
5
12a
8
Layer1
10
253.3500
20
68.9500
30
0.0
0
VERTEX
5
12b
8
Layer1
10
253.3500
20
72.1800
30
0.0
0
VERTEX
5
12c
8
Layer1
10
246.7000
20
72.1800
30
0.0
0
VERTEX
5
12d
8
Layer1
10
246.7000
20
71.3800
30
0.0
0
VERTEX
5
12e
8
Layer1
10
245.9250
20
71.3800
30
0.0
0
VERTEX
5
12f
8
Layer1
10
245.9250
20
72.6500
30
0.0
0
VERTEX
5
130
8
Layer1
10
245.1250
20
72.6500
30
0.0
0
VERTEX
5
131
8
Layer1
10
245.1250
20
73.6500
30
0.0
0
VERTEX
5
132
8
Layer1
10
231.1250
20
73.6500
30
0.0
0
VERTEX
5
133
8
Layer1
10
231.1250
20
72.6500
30
0.0
0
VERTEX
5
134
8
Layer1
10
230.3250
20
72.6500
30
0.0
0
VERTEX
5
135
8
Layer1
10
230.3250
20
71.3800
30
0.0
0
VERTEX
5
136
8
Layer1
10
229.5500
20
71.3800
30
0.0
0
VERTEX
5
137
8
Layer1
10
229.5500
20
72.1800
30
0.0
0
VERTEX
5
138
8
Layer1
10
222.9000
20
72.1800
30
0.0
0
VERTEX
5
139
8
Layer1
10
222.9000
20
68.9500
30
0.0
0
VERTEX
5
13a
8
Layer1
10
222.0250
20
68.9500
30
0.0
0
VERTEX
5
13b
8
Layer1
10
222.0250
20
66.1500
30
0.0
0
VERTEX
5
13c
8
Layer1
10
222.9000
20
66.1500
30
0.0
0
VERTEX
5
13d
8
Layer1
10
222.9000
20
59.8800
30
0.0
0
VERTEX
5
13e
8
Layer1
10
224.7250
20
59.8800
30
0.0
0
VERTEX
5
13f
8
Layer1
10
224.7250
20
58.6800
30
0.0
0
VERTEX
5
140
8
Layer1
10
227.7250
20
58.6800
30
0.0
0
VERTEX
5
141
8
Layer1
10
227.7250
20
59.8800
30
0.0
0
SEQEND
5
142
8
Layer1
0
POLYLINE
5
143
8
Layer1
66
1
10
0.0
20
0.0
30
0.0
70
1
0
VERTEX
5
144
8
Layer1
10
23.6690
20
41.6000
30
0.0
0
VERTEX
5
145
8
Layer1
10
24.4690
20
41.6000
30
0.0
0
VERTEX
5
146
8
Layer1
10
24.4690
20
45.1000
30
0.0
0
VERTEX
5
147
8
Layer1
10
23.6690
20
45.1000
30
0.0
0
VERTEX
5
148
8
Layer1
10
23.6690
20
50.1000
30
0.0
0
VERTEX
5
149
8
Layer1
10
24.4690
20
50.1000
30
0.0
0
VERTEX
5
14a
8
Layer1
10
24.4690
20
53.6000
30
0.0
0
VERTEX
5
14b
8
Layer1
10
23.6690
20
53.6000
30
0.0
0
VERTEX
5
14c
8
Layer1
10
23.6690
20
54.6000
30
0.0
0
VERTEX
5
14d
8
Layer1
10
9.6690
20
54.6000
30
0.0
0
VERTEX
5
14e
8
Layer1
10
9.6690
20
53.6000
30
0.0
0
VERTEX
5
14f
8
Layer1
10
8.8690
20
53.6000
30
0.0
0
VERTEX
5
150
8
Layer1
10
8.8690
20
50.1000
30
0.0
0
VERTEX
5
151
8
Layer1
10
9.6690
20
50.1000
30
0.0
0
VERTEX
5
152
8
Layer1
10
9.6690
20
45.1000
30
0.0
0
VERTEX
5
153
8
Layer1
10
8.8690
20
45.1000
30
0.0
0
VERTEX
5
154
8
Layer1
10
8.8690
20
41.6000
30
0.0
0
VERTEX
5
155
8
Layer1
10
9.6690
20
41.6000
30
0.0
0
VERTEX
5
156
8
Layer1
10
9.6690
20
40.6000
30
0.0
0
VERTEX
5
157
8
Layer1
10
23.6690
20
40.6000
30
0.0
0
VERTEX
5
158
8
Layer1
10
23.6690
20
41.6000
30
0.0
0
SEQEND
5
159
8
Layer1
0
POLYLINE
5
15a
8
Layer1
66
1
10
0.0
20
0.0
30
0.0
70
1
0
VERTEX
5
15b
8
Layer1
10
49.8630
20
41.6000
30
0.0
0
VERTEX
5
15c
8
Layer1
10
50.6620
20
41.6000
30
0.0
0
VERTEX
5
15d
8
Layer1
10
50.6620
20
45.1000
30
0.0
0
VERTEX
5
15e
8
Layer1
10
49.8630
20
45.1000
30
0.0
0
VERTEX
5
15f
8
Layer1
10
49.8630
20
50.1000
30
0.0
0
VERTEX
5
160
8
Layer1
10
50.6620
20
50.1000
30
0.0
0
VERTEX
5
161
8
Layer1
10
50.6620
20
53.6000
30
0.0
0
VERTEX
5
162
8
Layer1
10
49.8630
20
53.6000
30
0.0
0
VERTEX
5
163
8
Layer1
10
49.8630
20
54.6000
30
0.0
0
VERTEX
5
164
8
Layer1
10
35.8630
20
54.6000
30
0.0
0
VERTEX
5
165
8
Layer1
10
35.8630
20
53.6000
30
0.0
0
VERTEX
5
166
8
Layer1
10
35.0630
20
53.6000
30
0.0
0
VERTEX
5
167
8
Layer1
10
35.0630
20
50.1000
30
0.0
0
VERTEX
5
168
8
Layer1
10
35.8630
20
50.1000
30
0.0
0
VERTEX
5
169
8
Layer1
10
35.8630
20
45.1000
30
0.0
0
VERTEX
5
16a
8
Layer1
10
35.0630
20
45.1000
30
0.0
0
VERTEX
5
16b
8
Layer1
10
35.0630
20
41.6000
30
0.0
0
VERTEX
5
16c
8
Layer1
10
35.8630
20
41.6000
30
0.0
0
VERTEX
5
16d
8
Layer1
10
35.8630
20
40.6000
30
0.0
0
VERTEX
5
16e
8
Layer1
10
49.8630
20
40.6000
30
0.0
0
VERTEX
5
16f
8
Layer1
10
49.8630
20
41.6000
30
0.0
0
SEQEND
5
170
8
Layer1
0
POLYLINE
5
171
8
Layer1
66
1
10
0.0
20
0.0
30
0.0
70
1
0
VERTEX
5
172
8
Layer1
10
68.9130
20
41.6000
30
0.0
0
VERTEX
5
173
8
Layer1
10
69.7130
20
41.6000
30
0.0
0
VERTEX
5
174
8
Layer1
10
69.7130
20
45.1000
30
0.0
0
VERTEX
5
175
8
Layer1
10
68.9130
20
45.1000
30
0.0
0
VERTEX
5
176
8
Layer1
10
68.9130
20
50.1000
30
0.0
0
VERTEX
5
177
8
Layer1
10
69.7130
20
50.1000
30
0.0
0
VERTEX
5
178
8
Layer1
10
69.7130
20
53.6000
30
0.0
0
VERTEX
5
179
8
Layer1
10
68.9130
20
53.6000
30
0.0
0
VERTEX
5
17a
8
Layer1
10
68.9130
20
54.6000
30
0.0
0
VERTEX
5
17b
8
Layer1
10
54.9130
20
54.6000
30
0.0
0
VERTEX
5
17c
8
Layer1
10
54.9130
20
53.6000
30
0.0
0
VERTEX
5
17d
8
Layer1
10
54.1130
20
53.6000
30
0.0
0
VERTEX
5
17e
8
Layer1
10
54.1130
20
50.1000
30
0.0
0
VERTEX
5
17f
8
Layer1
10
54.9130
20
50.1000
30
0.0
0
VERTEX
5
180
8
Layer1
10
54.9130
20
45.1000
30
0.0
0
VERTEX
5
181
8
Layer1
10
54.1130
20
45.1000
30
0.0
0
VERTEX
5
182
8
Layer1
10
54.1130
20
41.6000
30
0.0
0
VERTEX
5
183
8
Layer1
10
54.9130
20
41.6000
30
0.0
0
VERTEX
5
184
8
Layer1
10
54.9130
20
40.6000
30
0.0
0
VERTEX
5
185
8
Layer1
10
68.9130
20
40.6000
30
0.0
0
VERTEX
5
186
8
Layer1
10
68.9130
20
41.6000
30
0.0
0
SEQEND
5
187
8
Layer1
0
POLYLINE
5
188
8
Layer1
66
1
10
0.0
20
0.0
30
0.0
70
1
0
VERTEX
5
189
8
Layer1
10
87.9630
20
41.6000
30
0.0
0
VERTEX
5
18a
8
Layer1
10
88.7630
20
41.6000
30
0.0
0
VERTEX
5
18b
8
Layer1
10
88.7630
20
45.1000
30
0.0
0
VERTEX
5
18c
8
Layer1
10
87.9630
20
45.1000
30
0.0
0
VERTEX
5
18d
8
Layer1
10
87.9630
20
50.1000
30
0.0
0
VERTEX
5
18e
8
Layer1
10
88.7630
20
50.1000
30
0.0
0
VERTEX
5
18f
8
Layer1
10
88.7630
20
53.6000
30
0.0
0
VERTEX
5
190
8
Layer1
10
87.9630
20
53.6000
30
0.0
0
VERTEX
5
191
8
Layer1
10
87.9630
20
54.6000
30
0.0
0
VERTEX
5
192
8
Layer1
10
73.9630
20
54.6000
30
0.0
0
VERTEX
5
193
8
Layer1
10
73.9630
20
53.6000
30
0.0
0
VERTEX
5
194
8
Layer1
10
73.1630
20
53.6000
30
0.0
0
VERTEX
5
195
8
Layer1
10
73.1630
20
50.1000
30
0.0
0
VERTEX
5
196
8
Layer1
10
73.9630
20
50.1000
30
0.0
0
VERTEX
5
197
8
Layer1
10
73.9630
20
45.1000
30
0.0
0
VERTEX
5
198
8
Layer1
10
73.1630
20
45.1000
30
0.0
0
VERTEX
5
199
8
Layer1
10
73.1630
20
41.6000
30
0.0
0
VERTEX
5
19a
8
Layer1
10
73.9630
20
41.6000
30
0.0
0
VERTEX
5
19b
8
Layer1
10
73.9630
20
40.6000
30
0.0
0
VERTEX
5
19c
8
Layer1
10
87.9630
20
40.6000
30
0.0
0
VERTEX
5
19d
8
Layer1
10
87.9630
20
41.6000
30
0.0
0
SEQEND
5
19e
8
Layer1
0
POLYLINE
5
19f
8
Layer1
66
1
10
0.0
20
0.0
30
0.0
70
1
0
VERTEX
5
1a0
8
Layer1
10
107.0130
20
41.6000
30
0.0
0
VERTEX
5
1a1
8
Layer1
10
107.8130
20
41.6000
30
0.0
0
VERTEX
5
1a2
8
Layer1
10
107.8130
20
45.1000
30
0.0
0
VERTEX
5
1a3
8
Layer1
10
107.0130
20
45.1000
30
0.0
0
VERTEX
5
1a4
8
Layer1
10
107.0130
20
50.1000
30
0.0
0
VERTEX
5
1a5
8
Layer1
10
107.8130
20
50.1000
30
0.0
0
VERTEX
5
1a6
8
Layer1
10
107.8130
20
53.6000
30
0.0
0
VERTEX
5
1a7
8
Layer1
10
107.0130
20
53.6000
30
0.0
0
VERTEX
5
1a8
8
Layer1
10
107.0130
20
54.6000
30
0.0
0
VERTEX
5
1a9
8
Layer1
10
93.0130
20
54.6000
30
0.0
0
VERTEX
5
1aa
8
Layer1
10
93.0130
20
53.6000
30
0.0
0
VERTEX
5
1ab
8
Layer1
10
92.2130
20
53.6000
30
0.0
0
VERTEX
5
1ac
8
Layer1
10
92.2130
20
50.1000
30
0.0
0
VERTEX
5
1ad
8
Layer1
10
93.0130
20
50.1000
30
0.0
0
VERTEX
5
1ae
8
Layer1
10
93.0130
20
45.1000
30
0.0
0
VERTEX
5
1af
8
Layer1
10
92.2130
20
45.1000
30
0.0
0
VERTEX
5
1b0
8
Layer1
10
92.2130
20
41.6000
30
0.0
0
VERTEX
5
1b1
8
Layer1
10
93.0130
20
41.6000
30
0.0
0
VERTEX
5
1b2
8
Layer1
10
93.0130
20
40.6000
30
0.0
0
VERTEX
5
1b3
8
Layer1
10
107.0130
20
40.6000
30
0.0
0
VERTEX
5
1b4
8
Layer1
10
107.0130
20
41.6000
30
0.0
0
SEQEND
5
1b5
8
Layer1
0
POLYLINE
5
1b6
8
Layer1
66
1
10
0.0
20
0.0
30
0.0
70
1
0
VERTEX
5
1b7
8
Layer1
10
126.0630
20
41.6000
30
0.0
0
VERTEX
5
1b8
8
Layer1
10
126.8630
20
41.6000
30
0.0
0
VERTEX
5
1b9
8
Layer1
10
126.8630
20
45.1000
30
0.0
0
VERTEX
5
1ba
8
Layer1
10
126.0630
20
45.1000
30
0.0
0
VERTEX
5
1bb
8
Layer1
10
126.0630
20
50.1000
30
0.0
0
VERTEX
5
1bc
8
Layer1
10
126.8630
20
50.1000
30
0.0
0
VERTEX
5
1bd
8
Layer1
10
126.8630
20
53.6000
30
0.0
0
VERTEX
5
1be
8
Layer1
10
126.0630
20
53.6000
30
0.0
0
VERTEX
5
1bf
8
Layer1
10
126.0630
20
54.6000
30
0.0
0
VERTEX
5
1c0
8
Layer1
10
112.0630
20
54.6000
30
0.0
0
VERTEX
5
1c1
8
Layer1
10
112.0630
20
53.6000
30
0.0
0
VERTEX
5
1c2
8
Layer1
10
111.2630
20
53.6000
30
0.0
0
VERTEX
5
1c3
8
Layer1
10
111.2630
20
50.1000
30
0.0
0
VERTEX
5
1c4
8
Layer1
10
112.0630
20
50.1000
30
0.0
0
VERTEX
5
1c5
8
Layer1
10
112.0630
20
45.1000
30
0.0
0
VERTEX
5
1c6
8
Layer1
10
111.2630
20
45.1000
30
0.0
0
VERTEX
5
1c7
8
Layer1
10
111.2630
20
41.6000
30
0.0
0
VERTEX
5
1c8
8
Layer1
10
112.0630
20
41.6000
30
0.0
0
VERTEX
5
1c9
8
Layer1
10
112.0630
20
40.6000
30
0.0
0
VERTEX
5
1ca
8
Layer1
10
126.0630
20
40.6000
30
0.0
0
VERTEX
5
1cb
8
Layer1
10
126.0630
20
41.6000
30
0.0
0
SEQEND
5
1cc
8
Layer1
0
POLYLINE
5
1cd
8
Layer1
66
1
10
0.0
20
0.0
30
0.0
70
1
0
VERTEX
5
1ce
8
Layer1
10
145.1130
20
41.6000
30
0.0
0
VERTEX
5
1cf
8
Layer1
10
145.9130
20
41.6000
30
0.0
0
VERTEX
5
1d0
8
Layer1
10
145.9130
20
45.1000
30
0.0
0
VERTEX
5
1d1
8
Layer1
10
145.1130
20
45.1000
30
0.0
0
VERTEX
5
1d2
8
Layer1
10
145.1130
20
50.1000
30
0.0
0
VERTEX
5
1d3
8
Layer1
10
145.9130
20
50.1000
30
0.0
0
VERTEX
5
1d4
8
Layer1
10
145.9130
20
53.6000
30
0.0
0
VERTEX
5
1d5
8
Layer1
10
145.1130
20
53.6000
30
0.0
0
VERTEX
5
1d6
8
Layer1
10
145.1130
20
54.6000
30
0.0
0
VERTEX
5
1d7
8
Layer1
10
131.1130
20
54.6000
30
0.0
0
VERTEX
5
1d8
8
Layer1
10
131.1130
20
53.6000
30
0.0
0
VERTEX
5
1d9
8
Layer1
10
130.3130
20
53.6000
30
0.0
0
VERTEX
5
1da
8
Layer1
10
130.3130
20
50.1000
30
0.0
0
VERTEX
5
1db
8
Layer1
10
131.1130
20
50.1000
30
0.0
0
VERTEX
5
1dc
8
Layer1
10
131.1130
20
45.1000
30
0.0
0
VERTEX
5
1dd
8
Layer1
10
130.3130
20
45.1000
30
0.0
0
VERTEX
5
1de
8
Layer1
10
130.3130
20
41.6000
30
0.0
0
VERTEX
5
1df
8
Layer1
10
131.1130
20
41.6000
30
0.0
0
VERTEX
5
1e0
8
Layer1
10
131.1130
20
40.6000
30
0.0
0
VERTEX
5
1e1
8
Layer1
10
145.1130
20
40.6000
30
0.0
0
VERTEX
5
1e2
8
Layer1
10
145.1130
20
41.6000
30
0.0
0
SEQEND
5
1e3
8
Layer1
0
POLYLINE
5
1e4
8
Layer1
66
1
10
0.0
20
0.0
30
0.0
70
1
0
VERTEX
5
1e5
8
Layer1
10
164.1630
20
41.6000
30
0.0
0
VERTEX
5
1e6
8
Layer1
10
164.9630
20
41.6000
30
0.0
0
VERTEX
5
1e7
8
Layer1
10
164.9630
20
45.1000
30
0.0
0
VERTEX
5
1e8
8
Layer1
10
164.1630
20
45.1000
30
0.0
0
VERTEX
5
1e9
8
Layer1
10
164.1630
20
50.1000
30
0.0
0
VERTEX
5
1ea
8
Layer1
10
164.9630
20
50.1000
30
0.0
0
VERTEX
5
1eb
8
Layer1
10
164.9630
20
53.6000
30
0.0
0
VERTEX
5
1ec
8
Layer1
10
164.1630
20
53.6000
30
0.0
0
VERTEX
5
1ed
8
Layer1
10
164.1630
20
54.6000
30
0.0
0
VERTEX
5
1ee
8
Layer1
10
150.1630
20
54.6000
30
0.0
0
VERTEX
5
1ef
8
Layer1
10
150.1630
20
53.6000
30
0.0
0
VERTEX
5
1f0
8
Layer1
10
149.3630
20
53.6000
30
0.0
0
VERTEX
5
1f1
8
Layer1
10
149.3630
20
50.1000
30
0.0
0
VERTEX
5
1f2
8
Layer1
10
150.1630
20
50.1000
30
0.0
0
VERTEX
5
1f3
8
Layer1
10
150.1630
20
45.1000
30
0.0
0
VERTEX
5
1f4
8
Layer1
10
149.3630
20
45.1000
30
0.0
0
VERTEX
5
1f5
8
Layer1
10
149.3630
20
41.6000
30
0.0
0
VERTEX
5
1f6
8
Layer1
10
150.1630
20
41.6000
30
0.0
0
VERTEX
5
1f7
8
Layer1
10
150.1630
20
40.6000
30
0.0
0
VERTEX
5
1f8
8
Layer1
10
164.1630
20
40.6000
30
0.0
0
VERTEX
5
1f9
8
Layer1
10
164.1630
20
41.6000
30
0.0
0
SEQEND
5
1fa
8
Layer1
0
POLYLINE
5
1fb
8
Layer1
66
1
10
0.0
20
0.0
30
0.0
70
1
0
VERTEX
5
1fc
8
Layer1
10
183.2130
20
41.6000
30
0.0
0
VERTEX
5
1fd
8
Layer1
10
184.0130
20
41.6000
30
0.0
0
VERTEX
5
1fe
8
Layer1
10
184.0130
20
45.1000
30
0.0
0
VERTEX
5
1ff
8
Layer1
10
183.2130
20
45.1000
30
0.0
0
VERTEX
5
200
8
Layer1
10
183.2130
20
50.1000
30
0.0
0
VERTEX
5
201
8
Layer1
10
184.0130
20
50.1000
30
0.0
0
VERTEX
5
202
8
Layer1
10
184.0130
20
53.6000
30
0.0
0
VERTEX
5
203
8
Layer1
10
183.2130
20
53.6000
30
0.0
0
VERTEX
5
204
8
Layer1
10
183.2130
20
54.6000
30
0.0
0
VERTEX
5
205
8
Layer1
10
169.2130
20
54.6000
30
0.0
0
VERTEX
5
206
8
Layer1
10
169.2130
20
53.6000
30
0.0
0
VERTEX
5
207
8
Layer1
10
168.4130
20
53.6000
30
0.0
0
VERTEX
5
208
8
Layer1
10
168.4130
20
50.1000
30
0.0
0
VERTEX
5
209
8
Layer1
10
169.2130
20
50.1000
30
0.0
0
VERTEX
5
20a
8
Layer1
10
169.2130
20
45.1000
30
0.0
0
VERTEX
5
20b
8
Layer1
10
168.4130
20
45.1000
30
0.0
0
VERTEX
5
20c
8
Layer1
10
168.4130
20
41.6000
30
0.0
0
VERTEX
5
20d
8
Layer1
10
169.2130
20
41.6000
30
0.0
0
VERTEX
5
20e
8
Layer1
10
169.2130
20
40.6000
30
0.0
0
VERTEX
5
20f
8
Layer1
10
183.2130
20
40.6000
30
0.0
0
VERTEX
5
210
8
Layer1
10
183.2130
20
41.6000
30
0.0
0
SEQEND
5
211
8
Layer1
0
POLYLINE
5
212
8
Layer1
66
1
10
0.0
20
0.0
30
0.0
70
1
0
VERTEX
5
213
8
Layer1
10
202.2630
20
41.6000
30
0.0
0
VERTEX
5
214
8
Layer1
10
203.0630
20
41.6000
30
0.0
0
VERTEX
5
215
8
Layer1
10
203.0630
20
45.1000
30
0.0
0
VERTEX
5
216
8
Layer1
10
202.2630
20
45.1000
30
0.0
0
VERTEX
5
217
8
Layer1
10
202.2630
20
50.1000
30
0.0
0
VERTEX
5
218
8
Layer1
10
203.0630
20
50.1000
30
0.0
0
VERTEX
5
219
8
Layer1
10
203.0630
20
53.6000
30
0.0
0
VERTEX
5
21a
8
Layer1
10
202.2630
20
53.6000
30
0.0
0
VERTEX
5
21b
8
Layer1
10
202.2630
20
54.6000
30
0.0
0
VERTEX
5
21c
8
Layer1
10
188.2630
20
54.6000
30
0.0
0
VERTEX
5
21d
8
Layer1
10
188.2630
20
53.6000
30
0.0
0
VERTEX
5
21e
8
Layer1
10
187.4630
20
53.6000
30
0.0
0
VERTEX
5
21f
8
Layer1
10
187.4630
20
50.1000
30
0.0
0
VERTEX
5
220
8
Layer1
10
188.2630
20
50.1000
30
0.0
0
VERTEX
5
221
8
Layer1
10
188.2630
20
45.1000
30
0.0
0
VERTEX
5
222
8
Layer1
10
187.4630
20
45.1000
30
0.0
0
VERTEX
5
223
8
Layer1
10
187.4630
20
41.6000
30
0.0
0
VERTEX
5
224
8
Layer1
10
188.2630
20
41.6000
30
0.0
0
VERTEX
5
225
8
Layer1
10
188.2630
20
40.6000
30
0.0
0
VERTEX
5
226
8
Layer1
10
202.2630
20
40.6000
30
0.0
0
VERTEX
5
227
8
Layer1
10
202.2630
20
41.6000
30
0.0
0
SEQEND
5
228
8
Layer1
0
POLYLINE
5
229
8
Layer1
66
1
10
0.0
20
0.0
30
0.0
70
1
0
VERTEX
5
22a
8
Layer1
10
221.3130
20
41.6000
30
0.0
0
VERTEX
5
22b
8
Layer1
10
222.1130
20
41.6000
30
0.0
0
VERTEX
5
22c
8
Layer1
10
222.1130
20
45.1000
30
0.0
0
VERTEX
5
22d
8
Layer1
10
221.3130
20
45.1000
30
0.0
0
VERTEX
5
22e
8
Layer1
10
221.3130
20
50.1000
30
0.0
0
VERTEX
5
22f
8
Layer1
10
222.1130
20
50.1000
30
0.0
0
VERTEX
5
230
8
Layer1
10
222.1130
20
53.6000
30
0.0
0
VERTEX
5
231
8
Layer1
10
221.3130
20
53.6000
30
0.0
0
VERTEX
5
232
8
Layer1
10
221.3130
20
54.6000
30
0.0
0
VERTEX
5
233
8
Layer1
10
207.3130
20
54.6000
30
0.0
0
VERTEX
5
234
8
Layer1
10
207.3130
20
53.6000
30
0.0
0
VERTEX
5
235
8
Layer1
10
206.5130
20
53.6000
30
0.0
0
VERTEX
5
236
8
Layer1
10
206.5130
20
50.1000
30
0.0
0
VERTEX
5
237
8
Layer1
10
207.3130
20
50.1000
30
0.0
0
VERTEX
5
238
8
Layer1
10
207.3130
20
45.1000
30
0.0
0
VERTEX
5
239
8
Layer1
10
206.5130
20
45.1000
30
0.0
0
VERTEX
5
23a
8
Layer1
10
206.5130
20
41.6000
30
0.0
0
VERTEX
5
23b
8
Layer1
10
207.3130
20
41.6000
30
0.0
0
VERTEX
5
23c
8
Layer1
10
207.3130
20
40.6000
30
0.0
0
VERTEX
5
23d
8
Layer1
10
221.3130
20
40.6000
30
0.0
0
VERTEX
5
23e
8
Layer1
10
221.3130
20
41.6000
30
0.0
0
SEQEND
5
23f
8
Layer1
0
POLYLINE
5
240
8
Layer1
66
1
10
0.0
20
0.0
30
0.0
70
1
0
VERTEX
5
241
8
Layer1
10
234.8690
20
40.8300
30
0.0
0
VERTEX
5
242
8
Layer1
10
236.6940
20
40.8300
30
0.0
0
VERTEX
5
243
8
Layer1
10
236.6940
20
41.6300
30
0.0
0
VERTEX
5
244
8
Layer1
10
237.4690
20
41.6300
30
0.0
0
VERTEX
5
245
8
Layer1
10
237.4690
20
41.6000
30
0.0
0
VERTEX
5
246
8
Layer1
10
238.2690
20
41.6000
30
0.0
0
VERTEX
5
247
8
Layer1
10
238.2690
20
40.6000
30
0.0
0
VERTEX
5
248
8
Layer1
10
252.2690
20
40.6000
30
0.0
0
VERTEX
5
249
8
Layer1
10
252.2690
20
41.6000
30
0.0
0
VERTEX
5
24a
8
Layer1
10
253.0690
20
41.6000
30
0.0
0
VERTEX
5
24b
8
Layer1
10
253.0690
20
41.6300
30
0.0
0
VERTEX
5
24c
8
Layer1
10
253.8440
20
41.6300
30
0.0
0
VERTEX
5
24d
8
Layer1
10
253.8440
20
40.8300
30
0.0
0
VERTEX
5
24e
8
Layer1
10
255.6690
20
40.8300
30
0.0
0
VERTEX
5
24f
8
Layer1
10
255.6690
20
39.6300
30
0.0
0
VERTEX
5
250
8
Layer1
10
258.6690
20
39.6300
30
0.0
0
VERTEX
5
251
8
Layer1
10
258.6690
20
40.8300
30
0.0
0
VERTEX
5
252
8
Layer1
10
260.4940
20
40.8300
30
0.0
0
VERTEX
5
253
8
Layer1
10
260.4940
20
47.1000
30
0.0
0
VERTEX
5
254
8
Layer1
10
261.3690
20
47.1000
30
0.0
0
VERTEX
5
255
8
Layer1
10
261.3690
20
49.9000
30
0.0
0
VERTEX
5
256
8
Layer1
10
260.4940
20
49.9000
30
0.0
0
VERTEX
5
257
8
Layer1
10
260.4940
20
53.1300
30
0.0
0
VERTEX
5
258
8
Layer1
10
253.8440
20
53.1300
30
0.0
0
VERTEX
5
259
8
Layer1
10
253.8440
20
52.3300
30
0.0
0
VERTEX
5
25a
8
Layer1
10
253.0690
20
52.3300
30
0.0
0
VERTEX
5
25b
8
Layer1
10
253.0690
20
53.6000
30
0.0
0
VERTEX
5
25c
8
Layer1
10
252.2690
20
53.6000
30
0.0
0
VERTEX
5
25d
8
Layer1
10
252.2690
20
54.6000
30
0.0
0
VERTEX
5
25e
8
Layer1
10
238.2690
20
54.6000
30
0.0
0
VERTEX
5
25f
8
Layer1
10
238.2690
20
53.6000
30
0.0
0
VERTEX
5
260
8
Layer1
10
237.4690
20
53.6000
30
0.0
0
VERTEX
5
261
8
Layer1
10
237.4690
20
52.3300
30
0.0
0
VERTEX
5
262
8
Layer1
10
236.6940
20
52.3300
30
0.0
0
VERTEX
5
263
8
Layer1
10
236.6940
20
53.1300
30
0.0
0
VERTEX
5
264
8
Layer1
10
230.0440
20
53.1300
30
0.0
0
VERTEX
5
265
8
Layer1
10
230.0440
20
49.9000
30
0.0
0
VERTEX
5
266
8
Layer1
10
229.1690
20
49.9000
30
0.0
0
VERTEX
5
267
8
Layer1
10
229.1690
20
47.1000
30
0.0
0
VERTEX
5
268
8
Layer1
10
230.0440
20
47.1000
30
0.0
0
VERTEX
5
269
8
Layer1
10
230.0440
20
40.8300
30
0.0
0
VERTEX
5
26a
8
Layer1
10
231.8690
20
40.8300
30
0.0
0
VERTEX
5
26b
8
Layer1
10
231.8690
20
39.6300
30
0.0
0
VERTEX
5
26c
8
Layer1
10
234.8690
20
39.6300
30
0.0
0
VERTEX
5
26d
8
Layer1
10
234.8690
20
40.8300
30
0.0
0
SEQEND
5
26e
8
Layer1
0
POLYLINE
5
26f
8
Layer1
66
1
10
0.0
20
0.0
30
0.0
70
1
0
VERTEX
5
270
8
Layer1
10
33.1940
20
22.5500
30
0.0
0
VERTEX
5
271
8
Layer1
10
33.9940
20
22.5500
30
0.0
0
VERTEX
5
272
8
Layer1
10
33.9940
20
26.0500
30
0.0
0
VERTEX
5
273
8
Layer1
10
33.1940
20
26.0500
30
0.0
0
VERTEX
5
274
8
Layer1
10
33.1940
20
31.0500
30
0.0
0
VERTEX
5
275
8
Layer1
10
33.9940
20
31.0500
30
0.0
0
VERTEX
5
276
8
Layer1
10
33.9940
20
34.5500
30
0.0
0
VERTEX
5
277
8
Layer1
10
33.1940
20
34.5500
30
0.0
0
VERTEX
5
278
8
Layer1
10
33.1940
20
35.5500
30
0.0
0
VERTEX
5
279
8
Layer1
10
19.1940
20
35.5500
30
0.0
0
VERTEX
5
27a
8
Layer1
10
19.1940
20
34.5500
30
0.0
0
VERTEX
5
27b
8
Layer1
10
18.3940
20
34.5500
30
0.0
0
VERTEX
5
27c
8
Layer1
10
18.3940
20
31.0500
30
0.0
0
VERTEX
5
27d
8
Layer1
10
19.1940
20
31.0500
30
0.0
0
VERTEX
5
27e
8
Layer1
10
19.1940
20
26.0500
30
0.0
0
VERTEX
5
27f
8
Layer1
10
18.3940
20
26.0500
30
0.0
0
VERTEX
5
280
8
Layer1
10
18.3940
20
22.5500
30
0.0
0
VERTEX
5
281
8
Layer1
10
19.1940
20
22.5500
30
0.0
0
VERTEX
5
282
8
Layer1
10
19.1940
20
21.5500
30
0.0
0
VERTEX
5
283
8
Layer1
10
33.1940
20
21.5500
30
0.0
0
VERTEX
5
284
8
Layer1
10
33.1940
20
22.5500
30
0.0
0
SEQEND
5
285
8
Layer1
0
POLYLINE
5
286
8
Layer1
66
1
10
0.0
20
0.0
30
0.0
70
1
0
VERTEX
5
287
8
Layer1
10
59.3880
20
22.5500
30
0.0
0
VERTEX
5
288
8
Layer1
10
60.1880
20
22.5500
30
0.0
0
VERTEX
5
289
8
Layer1
10
60.1880
20
26.0500
30
0.0
0
VERTEX
5
28a
8
Layer1
10
59.3880
20
26.0500
30
0.0
0
VERTEX
5
28b
8
Layer1
10
59.3880
20
31.0500
30
0.0
0
VERTEX
5
28c
8
Layer1
10
60.1880
20
31.0500
30
0.0
0
VERTEX
5
28d
8
Layer1
10
60.1880
20
34.5500
30
0.0
0
VERTEX
5
28e
8
Layer1
10
59.3880
20
34.5500
30
0.0
0
VERTEX
5
28f
8
Layer1
10
59.3880
20
35.5500
30
0.0
0
VERTEX
5
290
8
Layer1
10
45.3880
20
35.5500
30
0.0
0
VERTEX
5
291
8
Layer1
10
45.3880
20
34.5500
30
0.0
0
VERTEX
5
292
8
Layer1
10
44.5880
20
34.5500
30
0.0
0
VERTEX
5
293
8
Layer1
10
44.5880
20
31.0500
30
0.0
0
VERTEX
5
294
8
Layer1
10
45.3880
20
31.0500
30
0.0
0
VERTEX
5
295
8
Layer1
10
45.3880
20
26.0500
30
0.0
0
VERTEX
5
296
8
Layer1
10
44.5880
20
26.0500
30
0.0
0
VERTEX
5
297
8
Layer1
10
44.5880
20
22.5500
30
0.0
0
VERTEX
5
298
8
Layer1
10
45.3880
20
22.5500
30
0.0
0
VERTEX
5
299
8
Layer1
10
45.3880
20
21.5500
30
0.0
0
VERTEX
5
29a
8
Layer1
10
59.3880
20
21.5500
30
0.0
0
VERTEX
5
29b
8
Layer1
10
59.3880
20
22.5500
30
0.0
0
SEQEND
5
29c
8
Layer1
0
POLYLINE
5
29d
8
Layer1
66
1
10
0.0
20
0.0
30
0.0
70
1
0
VERTEX
5
29e
8
Layer1
10
78.4380
20
22.5500
30
0.0
0
VERTEX
5
29f
8
Layer1
10
79.2380
20
22.5500
30
0.0
0
VERTEX
5
2a0
8
Layer1
10
79.2380
20
26.0500
30
0.0
0
VERTEX
5
2a1
8
Layer1
10
78.4380
20
26.0500
30
0.0
0
VERTEX
5
2a2
8
Layer1
10
78.4380
20
31.0500
30
0.0
0
VERTEX
5
2a3
8
Layer1
10
79.2380
20
31.0500
30
0.0
0
VERTEX
5
2a4
8
Layer1
10
79.2380
20
34.5500
30
0.0
0
VERTEX
5
2a5
8
Layer1
10
78.4380
20
34.5500
30
0.0
0
VERTEX
5
2a6
8
Layer1
10
78.4380
20
35.5500
30
0.0
0
VERTEX
5
2a7
8
Layer1
10
64.4380
20
35.5500
30
0.0
0
VERTEX
5
2a8
8
Layer1
10
64.4380
20
34.5500
30
0.0
0
VERTEX
5
2a9
8
Layer1
10
63.6380
20
34.5500
30
0.0
0
VERTEX
5
2aa
8
Layer1
10
63.6380
20
31.0500
30
0.0
0
VERTEX
5
2ab
8
Layer1
10
64.4380
20
31.0500
30
0.0
0
VERTEX
5
2ac
8
Layer1
10
64.4380
20
26.0500
30
0.0
0
VERTEX
5
2ad
8
Layer1
10
63.6380
20
26.0500
30
0.0
0
VERTEX
5
2ae
8
Layer1
10
63.6380
20
22.5500
30
0.0
0
VERTEX
5
2af
8
Layer1
10
64.4380
20
22.5500
30
0.0
0
VERTEX
5
2b0
8
Layer1
10
64.4380
20
21.5500
30
0.0
0
VERTEX
5
2b1
8
Layer1
10
78.4380
20
21.5500
30
0.0
0
VERTEX
5
2b2
8
Layer1
10
78.4380
20
22.5500
30
0.0
0
SEQEND
5
2b3
8
Layer1
0
POLYLINE
5
2b4
8
Layer1
66
1
10
0.0
20
0.0
30
0.0
70
1
0
VERTEX
5
2b5
8
Layer1
10
97.4880
20
22.5500
30
0.0
0
VERTEX
5
2b6
8
Layer1
10
98.2880
20
22.5500
30
0.0
0
VERTEX
5
2b7
8
Layer1
10
98.2880
20
26.0500
30
0.0
0
VERTEX
5
2b8
8
Layer1
10
97.4880
20
26.0500
30
0.0
0
VERTEX
5
2b9
8
Layer1
10
97.4880
20
31.0500
30
0.0
0
VERTEX
5
2ba
8
Layer1
10
98.2880
20
31.0500
30
0.0
0
VERTEX
5
2bb
8
Layer1
10
98.2880
20
34.5500
30
0.0
0
VERTEX
5
2bc
8
Layer1
10
97.4880
20
34.5500
30
0.0
0
VERTEX
5
2bd
8
Layer1
10
97.4880
20
35.5500
30
0.0
0
VERTEX
5
2be
8
Layer1
10
83.4880
20
35.5500
30
0.0
0
VERTEX
5
2bf
8
Layer1
10
83.4880
20
34.5500
30
0.0
0
VERTEX
5
2c0
8
Layer1
10
82.6880
20
34.5500
30
0.0
0
VERTEX
5
2c1
8
Layer1
10
82.6880
20
31.0500
30
0.0
0
VERTEX
5
2c2
8
Layer1
10
83.4880
20
31.0500
30
0.0
0
VERTEX
5
2c3
8
Layer1
10
83.4880
20
26.0500
30
0.0
0
VERTEX
5
2c4
8
Layer1
10
82.6880
20
26.0500
30
0.0
0
VERTEX
5
2c5
8
Layer1
10
82.6880
20
22.5500
30
0.0
0
VERTEX
5
2c6
8
Layer1
10
83.4880
20
22.5500
30
0.0
0
VERTEX
5
2c7
8
Layer1
10
83.4880
20
21.5500
30
0.0
0
VERTEX
5
2c8
8
Layer1
10
97.4880
20
21.5500
30
0.0
0
VERTEX
5
2c9
8
Layer1
10
97.4880
20
22.5500
30
0.0
0
SEQEND
5
2ca
8
Layer1
0
POLYLINE
5
2cb
8
Layer1
66
1
10
0.0
20
0.0
30
0.0
70
1
0
VERTEX
5
2cc
8
Layer1
10
116.5380
20
22.5500
30
0.0
0
VERTEX
5
2cd
8
Layer1
10
117.3380
20
22.5500
30
0.0
0
VERTEX
5
2ce
8
Layer1
10
117.3380
20
26.0500
30
0.0
0
VERTEX
5
2cf
8
Layer1
10
116.5380
20
26.0500
30
0.0
0
VERTEX
5
2d0
8
Layer1
10
116.5380
20
31.0500
30
0.0
0
VERTEX
5
2d1
8
Layer1
10
117.3380
20
31.0500
30
0.0
0
VERTEX
5
2d2
8
Layer1
10
117.3380
20
34.5500
30
0.0
0
VERTEX
5
2d3
8
Layer1
10
116.5380
20
34.5500
30
0.0
0
VERTEX
5
2d4
8
Layer1
10
116.5380
20
35.5500
30
0.0
0
VERTEX
5
2d5
8
Layer1
10
102.5380
20
35.5500
30
0.0
0
VERTEX
5
2d6
8
Layer1
10
102.5380
20
34.5500
30
0.0
0
VERTEX
5
2d7
8
Layer1
10
101.7380
20
34.5500
30
0.0
0
VERTEX
5
2d8
8
Layer1
10
101.7380
20
31.0500
30
0.0
0
VERTEX
5
2d9
8
Layer1
10
102.5380
20
31.0500
30
0.0
0
VERTEX
5
2da
8
Layer1
10
102.5380
20
26.0500
30
0.0
0
VERTEX
5
2db
8
Layer1
10
101.7380
20
26.0500
30
0.0
0
VERTEX
5
2dc
8
Layer1
10
101.7380
20
22.5500
30
0.0
0
VERTEX
5
2dd
8
Layer1
10
102.5380
20
22.5500
30
0.0
0
VERTEX
5
2de
8
Layer1
10
102.5380
20
21.5500
30
0.0
0
VERTEX
5
2df
8
Layer1
10
116.5380
20
21.5500
30
0.0
0
VERTEX
5
2e0
8
Layer1
10
116.5380
20
22.5500
30
0.0
0
SEQEND
5
2e1
8
Layer1
0
POLYLINE
5
2e2
8
Layer1
66
1
10
0.0
20
0.0
30
0.0
70
1
0
VERTEX
5
2e3
8
Layer1
10
135.5880
20
22.5500
30
0.0
0
VERTEX
5
2e4
8
Layer1
10
136.3880
20
22.5500
30
0.0
0
VERTEX
5
2e5
8
Layer1
10
136.3880
20
26.0500
30
0.0
0
VERTEX
5
2e6
8
Layer1
10
135.5880
20
26.0500
30
0.0
0
VERTEX
5
2e7
8
Layer1
10
135.5880
20
31.0500
30
0.0
0
VERTEX
5
2e8
8
Layer1
10
136.3880
20
31.0500
30
0.0
0
VERTEX
5
2e9
8
Layer1
10
136.3880
20
34.5500
30
0.0
0
VERTEX
5
2ea
8
Layer1
10
135.5880
20
34.5500
30
0.0
0
VERTEX
5
2eb
8
Layer1
10
135.5880
20
35.5500
30
0.0
0
VERTEX
5
2ec
8
Layer1
10
121.5880
20
35.5500
30
0.0
0
VERTEX
5
2ed
8
Layer1
10
121.5880
20
34.5500
30
0.0
0
VERTEX
5
2ee
8
Layer1
10
120.7880
20
34.5500
30
0.0
0
VERTEX
5
2ef
8
Layer1
10
120.7880
20
31.0500
30
0.0
0
VERTEX
5
2f0
8
Layer1
10
121.5880
20
31.0500
30
0.0
0
VERTEX
5
2f1
8
Layer1
10
121.5880
20
26.0500
30
0.0
0
VERTEX
5
2f2
8
Layer1
10
120.7880
20
26.0500
30
0.0
0
VERTEX
5
2f3
8
Layer1
10
120.7880
20
22.5500
30
0.0
0
VERTEX
5
2f4
8
Layer1
10
121.5880
20
22.5500
30
0.0
0
VERTEX
5
2f5
8
Layer1
10
121.5880
20
21.5500
30
0.0
0
VERTEX
5
2f6
8
Layer1
10
135.5880
20
21.5500
30
0.0
0
VERTEX
5
2f7
8
Layer1
10
135.5880
20
22.5500
30
0.0
0
SEQEND
5
2f8
8
Layer1
0
POLYLINE
5
2f9
8
Layer1
66
1
10
0.0
20
0.0
30
0.0
70
1
0
VERTEX
5
2fa
8
Layer1
10
154.6380
20
22.5500
30
0.0
0
VERTEX
5
2fb
8
Layer1
10
155.4380
20
22.5500
30
0.0
0
VERTEX
5
2fc
8
Layer1
10
155.4380
20
26.0500
30
0.0
0
VERTEX
5
2fd
8
Layer1
10
154.6380
20
26.0500
30
0.0
0
VERTEX
5
2fe
8
Layer1
10
154.6380
20
31.0500
30
0.0
0
VERTEX
5
2ff
8
Layer1
10
155.4380
20
31.0500
30
0.0
0
VERTEX
5
300
8
Layer1
10
155.4380
20
34.5500
30
0.0
0
VERTEX
5
301
8
Layer1
10
154.6380
20
34.5500
30
0.0
0
VERTEX
5
302
8
Layer1
10
154.6380
20
35.5500
30
0.0
0
VERTEX
5
303
8
Layer1
10
140.6380
20
35.5500
30
0.0
0
VERTEX
5
304
8
Layer1
10
140.6380
20
34.5500
30
0.0
0
VERTEX
5
305
8
Layer1
10
139.8380
20
34.5500
30
0.0
0
VERTEX
5
306
8
Layer1
10
139.8380
20
31.0500
30
0.0
0
VERTEX
5
307
8
Layer1
10
140.6380
20
31.0500
30
0.0
0
VERTEX
5
308
8
Layer1
10
140.6380
20
26.0500
30
0.0
0
VERTEX
5
309
8
Layer1
10
139.8380
20
26.0500
30
0.0
0
VERTEX
5
30a
8
Layer1
10
139.8380
20
22.5500
30
0.0
0
VERTEX
5
30b
8
Layer1
10
140.6380
20
22.5500
30
0.0
0
VERTEX
5
30c
8
Layer1
10
140.6380
20
21.5500
30
0.0
0
VERTEX
5
30d
8
Layer1
10
154.6380
20
21.5500
30
0.0
0
VERTEX
5
30e
8
Layer1
10
154.6380
20
22.5500
30
0.0
0
SEQEND
5
30f
8
Layer1
0
POLYLINE
5
310
8
Layer1
66
1
10
0.0
20
0.0
30
0.0
70
1
0
VERTEX
5
311
8
Layer1
10
173.6880
20
22.5500
30
0.0
0
VERTEX
5
312
8
Layer1
10
174.4880
20
22.5500
30
0.0
0
VERTEX
5
313
8
Layer1
10
174.4880
20
26.0500
30
0.0
0
VERTEX
5
314
8
Layer1
10
173.6880
20
26.0500
30
0.0
0
VERTEX
5
315
8
Layer1
10
173.6880
20
31.0500
30
0.0
0
VERTEX
5
316
8
Layer1
10
174.4880
20
31.0500
30
0.0
0
VERTEX
5
317
8
Layer1
10
174.4880
20
34.5500
30
0.0
0
VERTEX
5
318
8
Layer1
10
173.6880
20
34.5500
30
0.0
0
VERTEX
5
319
8
Layer1
10
173.6880
20
35.5500
30
0.0
0
VERTEX
5
31a
8
Layer1
10
159.6880
20
35.5500
30
0.0
0
VERTEX
5
31b
8
Layer1
10
159.6880
20
34.5500
30
0.0
0
VERTEX
5
31c
8
Layer1
10
158.8880
20
34.5500
30
0.0
0
VERTEX
5
31d
8
Layer1
10
158.8880
20
31.0500
30
0.0
0
VERTEX
5
31e
8
Layer1
10
159.6880
20
31.0500
30
0.0
0
VERTEX
5
31f
8
Layer1
10
159.6880
20
26.0500
30
0.0
0
VERTEX
5
320
8
Layer1
10
158.8880
20
26.0500
30
0.0
0
VERTEX
5
321
8
Layer1
10
158.8880
20
22.5500
30
0.0
0
VERTEX
5
322
8
Layer1
10
159.6880
20
22.5500
30
0.0
0
VERTEX
5
323
8
Layer1
10
159.6880
20
21.5500
30
0.0
0
VERTEX
5
324
8
Layer1
10
173.6880
20
21.5500
30
0.0
0
VERTEX
5
325
8
Layer1
10
173.6880
20
22.5500
30
0.0
0
SEQEND
5
326
8
Layer1
0
POLYLINE
5
327
8
Layer1
66
1
10
0.0
20
0.0
30
0.0
70
1
0
VERTEX
5
328
8
Layer1
10
192.7380
20
22.5500
30
0.0
0
VERTEX
5
329
8
Layer1
10
193.5380
20
22.5500
30
0.0
0
VERTEX
5
32a
8
Layer1
10
193.5380
20
26.0500
30
0.0
0
VERTEX
5
32b
8
Layer1
10
192.7380
20
26.0500
30
0.0
0
VERTEX
5
32c
8
Layer1
10
192.7380
20
31.0500
30
0.0
0
VERTEX
5
32d
8
Layer1
10
193.5380
20
31.0500
30
0.0
0
VERTEX
5
32e
8
Layer1
10
193.5380
20
34.5500
30
0.0
0
VERTEX
5
32f
8
Layer1
10
192.7380
20
34.5500
30
0.0
0
VERTEX
5
330
8
Layer1
10
192.7380
20
35.5500
30
0.0
0
VERTEX
5
331
8
Layer1
10
178.7380
20
35.5500
30
0.0
0
VERTEX
5
332
8
Layer1
10
178.7380
20
34.5500
30
0.0
0
VERTEX
5
333
8
Layer1
10
177.9380
20
34.5500
30
0.0
0
VERTEX
5
334
8
Layer1
10
177.9380
20
31.0500
30
0.0
0
VERTEX
5
335
8
Layer1
10
178.7380
20
31.0500
30
0.0
0
VERTEX
5
336
8
Layer1
10
178.7380
20
26.0500
30
0.0
0
VERTEX
5
337
8
Layer1
10
177.9380
20
26.0500
30
0.0
0
VERTEX
5
338
8
Layer1
10
177.9380
20
22.5500
30
0.0
0
VERTEX
5
339
8
Layer1
10
178.7380
20
22.5500
30
0.0
0
VERTEX
5
33a
8
Layer1
10
178.7380
20
21.5500
30
0.0
0
VERTEX
5
33b
8
Layer1
10
192.7380
20
21.5500
30
0.0
0
VERTEX
5
33c
8
Layer1
10
192.7380
20
22.5500
30
0.0
0
SEQEND
5
33d
8
Layer1
0
POLYLINE
5
33e
8
Layer1
66
1
10
0.0
20
0.0
30
0.0
70
1
0
VERTEX
5
33f
8
Layer1
10
211.7880
20
22.5500
30
0.0
0
VERTEX
5
340
8
Layer1
10
212.5880
20
22.5500
30
0.0
0
VERTEX
5
341
8
Layer1
10
212.5880
20
26.0500
30
0.0
0
VERTEX
5
342
8
Layer1
10
211.7880
20
26.0500
30
0.0
0
VERTEX
5
343
8
Layer1
10
211.7880
20
31.0500
30
0.0
0
VERTEX
5
344
8
Layer1
10
212.5880
20
31.0500
30
0.0
0
VERTEX
5
345
8
Layer1
10
212.5880
20
34.5500
30
0.0
0
VERTEX
5
346
8
Layer1
10
211.7880
20
34.5500
30
0.0
0
VERTEX
5
347
8
Layer1
10
211.7880
20
35.5500
30
0.0
0
VERTEX
5
348
8
Layer1
10
197.7880
20
35.5500
30
0.0
0
VERTEX
5
349
8
Layer1
10
197.7880
20
34.5500
30
0.0
0
VERTEX
5
34a
8
Layer1
10
196.9880
20
34.5500
30
0.0
0
VERTEX
5
34b
8
Layer1
10
196.9880
20
31.0500
30
0.0
0
VERTEX
5
34c
8
Layer1
10
197.7880
20
31.0500
30
0.0
0
VERTEX
5
34d
8
Layer1
10
197.7880
20
26.0500
30
0.0
0
VERTEX
5
34e
8
Layer1
10
196.9880
20
26.0500
30
0.0
0
VERTEX
5
34f
8
Layer1
10
196.9880
20
22.5500
30
0.0
0
VERTEX
5
350
8
Layer1
10
197.7880
20
22.5500
30
0.0
0
VERTEX
5
351
8
Layer1
10
197.7880
20
21.5500
30
0.0
0
VERTEX
5
352
8
Layer1
10
211.7880
20
21.5500
30
0.0
0
VERTEX
5
353
8
Layer1
10
211.7880
20
22.5500
30
0.0
0
SEQEND
5
354
8
Layer1
0
POLYLINE
5
355
8
Layer1
66
1
10
0.0
20
0.0
30
0.0
70
1
0
VERTEX
5
356
8
Layer1
10
225.3440
20
21.7800
30
0.0
0
VERTEX
5
357
8
Layer1
10
227.1690
20
21.7800
30
0.0
0
VERTEX
5
358
8
Layer1
10
227.1690
20
22.5800
30
0.0
0
VERTEX
5
359
8
Layer1
10
227.9440
20
22.5800
30
0.0
0
VERTEX
5
35a
8
Layer1
10
227.9440
20
22.5500
30
0.0
0
VERTEX
5
35b
8
Layer1
10
228.7440
20
22.5500
30
0.0
0
VERTEX
5
35c
8
Layer1
10
228.7440
20
21.5500
30
0.0
0
VERTEX
5
35d
8
Layer1
10
242.7440
20
21.5500
30
0.0
0
VERTEX
5
35e
8
Layer1
10
242.7440
20
22.5500
30
0.0
0
VERTEX
5
35f
8
Layer1
10
243.5440
20
22.5500
30
0.0
0
VERTEX
5
360
8
Layer1
10
243.5440
20
22.5800
30
0.0
0
VERTEX
5
361
8
Layer1
10
244.3190
20
22.5800
30
0.0
0
VERTEX
5
362
8
Layer1
10
244.3190
20
21.7800
30
0.0
0
VERTEX
5
363
8
Layer1
10
246.1440
20
21.7800
30
0.0
0
VERTEX
5
364
8
Layer1
10
246.1440
20
20.5800
30
0.0
0
VERTEX
5
365
8
Layer1
10
249.1440
20
20.5800
30
0.0
0
VERTEX
5
366
8
Layer1
10
249.1440
20
21.7800
30
0.0
0
VERTEX
5
367
8
Layer1
10
250.9690
20
21.7800
30
0.0
0
VERTEX
5
368
8
Layer1
10
250.9690
20
28.0500
30
0.0
0
VERTEX
5
369
8
Layer1
10
251.8440
20
28.0500
30
0.0
0
VERTEX
5
36a
8
Layer1
10
251.8440
20
30.8500
30
0.0
0
VERTEX
5
36b
8
Layer1
10
250.9690
20
30.8500
30
0.0
0
VERTEX
5
36c
8
Layer1
10
250.9690
20
34.0800
30
0.0
0
VERTEX
5
36d
8
Layer1
10
244.3190
20
34.0800
30
0.0
0
VERTEX
5
36e
8
Layer1
10
244.3190
20
33.2800
30
0.0
0
VERTEX
5
36f
8
Layer1
10
243.5440
20
33.2800
30
0.0
0
VERTEX
5
370
8
Layer1
10
243.5440
20
34.5500
30
0.0
0
VERTEX
5
371
8
Layer1
10
242.7440
20
34.5500
30
0.0
0
VERTEX
5
372
8
Layer1
10
242.7440
20
35.5500
30
0.0
0
VERTEX
5
373
8
Layer1
10
228.7440
20
35.5500
30
0.0
0
VERTEX
5
374
8
Layer1
10
228.7440
20
34.5500
30
0.0
0
VERTEX
5
375
8
Layer1
10
227.9440
20
34.5500
30
0.0
0
VERTEX
5
376
8
Layer1
10
227.9440
20
33.2800
30
0.0
0
VERTEX
5
377
8
Layer1
10
227.1690
20
33.2800
30
0.0
0
VERTEX
5
378
8
Layer1
10
227.1690
20
34.0800
30
0.0
0
VERTEX
5
379
8
Layer1
10
220.5190
20
34.0800
30
0.0
0
VERTEX
5
37a
8
Layer1
10
220.5190
20
30.8500
30
0.0
0
VERTEX
5
37b
8
Layer1
10
219.6440
20
30.8500
30
0.0
0
VERTEX
5
37c
8
Layer1
10
219.6440
20
28.0500
30
0.0
0
VERTEX
5
37d
8
Layer1
10
220.5190
20
28.0500
30
0.0
0
VERTEX
5
37e
8
Layer1
10
220.5190
20
21.7800
30
0.0
0
VERTEX
5
37f
8
Layer1
10
222.3440
20
21.7800
30
0.0
0
VERTEX
5
380
8
Layer1
10
222.3440
20
20.5800
30
0.0
0
VERTEX
5
381
8
Layer1
10
225.3440
20
20.5800
30
0.0
0
VERTEX
5
382
8
Layer1
10
225.3440
20
21.7800
30
0.0
0
SEQEND
5
383
8
Layer1
0
POLYLINE
5
384
8
Layer1
66
1
10
0.0
20
0.0
30
0.0
70
1
0
VERTEX
5
385
8
Layer1
10
33.1940
20
3.5000
30
0.0
0
VERTEX
5
386
8
Layer1
10
33.9940
20
3.5000
30
0.0
0
VERTEX
5
387
8
Layer1
10
33.9940
20
7.0000
30
0.0
0
VERTEX
5
388
8
Layer1
10
33.1940
20
7.0000
30
0.0
0
VERTEX
5
389
8
Layer1
10
33.1940
20
12.0000
30
0.0
0
VERTEX
5
38a
8
Layer1
10
33.9940
20
12.0000
30
0.0
0
VERTEX
5
38b
8
Layer1
10
33.9940
20
15.5000
30
0.0
0
VERTEX
5
38c
8
Layer1
10
33.1940
20
15.5000
30
0.0
0
VERTEX
5
38d
8
Layer1
10
33.1940
20
16.5000
30
0.0
0
VERTEX
5
38e
8
Layer1
10
19.1940
20
16.5000
30
0.0
0
VERTEX
5
38f
8
Layer1
10
19.1940
20
15.5000
30
0.0
0
VERTEX
5
390
8
Layer1
10
18.3940
20
15.5000
30
0.0
0
VERTEX
5
391
8
Layer1
10
18.3940
20
12.0000
30
0.0
0
VERTEX
5
392
8
Layer1
10
19.1940
20
12.0000
30
0.0
0
VERTEX
5
393
8
Layer1
10
19.1940
20
7.0000
30
0.0
0
VERTEX
5
394
8
Layer1
10
18.3940
20
7.0000
30
0.0
0
VERTEX
5
395
8
Layer1
10
18.3940
20
3.5000
30
0.0
0
VERTEX
5
396
8
Layer1
10
19.1940
20
3.5000
30
0.0
0
VERTEX
5
397
8
Layer1
10
19.1940
20
2.5000
30
0.0
0
VERTEX
5
398
8
Layer1
10
33.1940
20
2.5000
30
0.0
0
VERTEX
5
399
8
Layer1
10
33.1940
20
3.5000
30
0.0
0
SEQEND
5
39a
8
Layer1
0
POLYLINE
5
39b
8
Layer1
66
1
10
0.0
20
0.0
30
0.0
70
1
0
VERTEX
5
39c
8
Layer1
10
57.0060
20
3.5000
30
0.0
0
VERTEX
5
39d
8
Layer1
10
57.8060
20
3.5000
30
0.0
0
VERTEX
5
39e
8
Layer1
10
57.8060
20
7.0000
30
0.0
0
VERTEX
5
39f
8
Layer1
10
57.0060
20
7.0000
30
0.0
0
VERTEX
5
3a0
8
Layer1
10
57.0060
20
12.0000
30
0.0
0
VERTEX
5
3a1
8
Layer1
10
57.8060
20
12.0000
30
0.0
0
VERTEX
5
3a2
8
Layer1
10
57.8060
20
15.5000
30
0.0
0
VERTEX
5
3a3
8
Layer1
10
57.0060
20
15.5000
30
0.0
0
VERTEX
5
3a4
8
Layer1
10
57.0060
20
16.5000
30
0.0
0
VERTEX
5
3a5
8
Layer1
10
43.0060
20
16.5000
30
0.0
0
VERTEX
5
3a6
8
Layer1
10
43.0060
20
15.5000
30
0.0
0
VERTEX
5
3a7
8
Layer1
10
42.2060
20
15.5000
30
0.0
0
VERTEX
5
3a8
8
Layer1
10
42.2060
20
12.0000
30
0.0
0
VERTEX
5
3a9
8
Layer1
10
43.0060
20
12.0000
30
0.0
0
VERTEX
5
3aa
8
Layer1
10
43.0060
20
7.0000
30
0.0
0
VERTEX
5
3ab
8
Layer1
10
42.2060
20
7.0000
30
0.0
0
VERTEX
5
3ac
8
Layer1
10
42.2060
20
3.5000
30
0.0
0
VERTEX
5
3ad
8
Layer1
10
43.0060
20
3.5000
30
0.0
0
VERTEX
5
3ae
8
Layer1
10
43.0060
20
2.5000
30
0.0
0
VERTEX
5
3af
8
Layer1
10
57.0060
20
2.5000
30
0.0
0
VERTEX
5
3b0
8
Layer1
10
57.0060
20
3.5000
30
0.0
0
SEQEND
5
3b1
8
Layer1
0
POLYLINE
5
3b2
8
Layer1
66
1
10
0.0
20
0.0
30
0.0
70
1
0
VERTEX
5
3b3
8
Layer1
10
80.8190
20
3.5000
30
0.0
0
VERTEX
5
3b4
8
Layer1
10
81.6190
20
3.5000
30
0.0
0
VERTEX
5
3b5
8
Layer1
10
81.6190
20
7.0000
30
0.0
0
VERTEX
5
3b6
8
Layer1
10
80.8190
20
7.0000
30
0.0
0
VERTEX
5
3b7
8
Layer1
10
80.8190
20
12.0000
30
0.0
0
VERTEX
5
3b8
8
Layer1
10
81.6190
20
12.0000
30
0.0
0
VERTEX
5
3b9
8
Layer1
10
81.6190
20
15.5000
30
0.0
0
VERTEX
5
3ba
8
Layer1
10
80.8190
20
15.5000
30
0.0
0
VERTEX
5
3bb
8
Layer1
10
80.8190
20
16.5000
30
0.0
0
VERTEX
5
3bc
8
Layer1
10
66.8190
20
16.5000
30
0.0
0
VERTEX
5
3bd
8
Layer1
10
66.8190
20
15.5000
30
0.0
0
VERTEX
5
3be
8
Layer1
10
66.0190
20
15.5000
30
0.0
0
VERTEX
5
3bf
8
Layer1
10
66.0190
20
12.0000
30
0.0
0
VERTEX
5
3c0
8
Layer1
10
66.8190
20
12.0000
30
0.0
0
VERTEX
5
3c1
8
Layer1
10
66.8190
20
7.0000
30
0.0
0
VERTEX
5
3c2
8
Layer1
10
66.0190
20
7.0000
30
0.0
0
VERTEX
5
3c3
8
Layer1
10
66.0190
20
3.5000
30
0.0
0
VERTEX
5
3c4
8
Layer1
10
66.8190
20
3.5000
30
0.0
0
VERTEX
5
3c5
8
Layer1
10
66.8190
20
2.5000
30
0.0
0
VERTEX
5
3c6
8
Layer1
10
80.8190
20
2.5000
30
0.0
0
VERTEX
5
3c7
8
Layer1
10
80.8190
20
3.5000
30
0.0
0
SEQEND
5
3c8
8
Layer1
0
POLYLINE
5
3c9
8
Layer1
66
1
10
0.0
20
0.0
30
0.0
70
1
0
VERTEX
5
3ca
8
Layer1
10
96.7560
20
2.7300
30
0.0
0
VERTEX
5
3cb
8
Layer1
10
98.5810
20
2.7300
30
0.0
0
VERTEX
5
3cc
8
Layer1
10
98.5810
20
3.5300
30
0.0
0
VERTEX
5
3cd
8
Layer1
10
99.3560
20
3.5300
30
0.0
0
VERTEX
5
3ce
8
Layer1
10
99.3560
20
3.5000
30
0.0
0
VERTEX
5
3cf
8
Layer1
10
100.1560
20
3.5000
30
0.0
0
VERTEX
5
3d0
8
Layer1
10
100.1560
20
2.5000
30
0.0
0
VERTEX
5
3d1
8
Layer1
10
114.1560
20
2.5000
30
0.0
0
VERTEX
5
3d2
8
Layer1
10
114.1560
20
3.5000
30
0.0
0
VERTEX
5
3d3
8
Layer1
10
114.9560
20
3.5000
30
0.0
0
VERTEX
5
3d4
8
Layer1
10
114.9560
20
3.5300
30
0.0
0
VERTEX
5
3d5
8
Layer1
10
115.7310
20
3.5300
30
0.0
0
VERTEX
5
3d6
8
Layer1
10
115.7310
20
2.7300
30
0.0
0
VERTEX
5
3d7
8
Layer1
10
117.5560
20
2.7300
30
0.0
0
VERTEX
5
3d8
8
Layer1
10
117.5560
20
1.5300
30
0.0
0
VERTEX
5
3d9
8
Layer1
10
120.5560
20
1.5300
30
0.0
0
VERTEX
5
3da
8
Layer1
10
120.5560
20
2.7300
30
0.0
0
VERTEX
5
3db
8
Layer1
10
122.3810
20
2.7300
30
0.0
0
VERTEX
5
3dc
8
Layer1
10
122.3810
20
9.0000
30
0.0
0
VERTEX
5
3dd
8
Layer1
10
123.2560
20
9.0000
30
0.0
0
VERTEX
5
3de
8
Layer1
10
123.2560
20
11.8000
30
0.0
0
VERTEX
5
3df
8
Layer1
10
122.3810
20
11.8000
30
0.0
0
VERTEX
5
3e0
8
Layer1
10
122.3810
20
15.0300
30
0.0
0
VERTEX
5
3e1
8
Layer1
10
115.7310
20
15.0300
30
0.0
0
VERTEX
5
3e2
8
Layer1
10
115.7310
20
14.2300
30
0.0
0
VERTEX
5
3e3
8
Layer1
10
114.9560
20
14.2300
30
0.0
0
VERTEX
5
3e4
8
Layer1
10
114.9560
20
15.5000
30
0.0
0
VERTEX
5
3e5
8
Layer1
10
114.1560
20
15.5000
30
0.0
0
VERTEX
5
3e6
8
Layer1
10
114.1560
20
16.5000
30
0.0
0
VERTEX
5
3e7
8
Layer1
10
100.1560
20
16.5000
30
0.0
0
VERTEX
5
3e8
8
Layer1
10
100.1560
20
15.5000
30
0.0
0
VERTEX
5
3e9
8
Layer1
10
99.3560
20
15.5000
30
0.0
0
VERTEX
5
3ea
8
Layer1
10
99.3560
20
14.2300
30
0.0
0
VERTEX
5
3eb
8
Layer1
10
98.5810
20
14.2300
30
0.0
0
VERTEX
5
3ec
8
Layer1
10
98.5810
20
15.0300
30
0.0
0
VERTEX
5
3ed
8
Layer1
10
91.9310
20
15.0300
30
0.0
0
VERTEX
5
3ee
8
Layer1
10
91.9310
20
11.8000
30
0.0
0
VERTEX
5
3ef
8
Layer1
10
91.0560
20
11.8000
30
0.0
0
VERTEX
5
3f0
8
Layer1
10
91.0560
20
9.0000
30
0.0
0
VERTEX
5
3f1
8
Layer1
10
91.9310
20
9.0000
30
0.0
0
VERTEX
5
3f2
8
Layer1
10
91.9310
20
2.7300
30
0.0
0
VERTEX
5
3f3
8
Layer1
10
93.7560
20
2.7300
30
0.0
0
VERTEX
5
3f4
8
Layer1
10
93.7560
20
1.5300
30
0.0
0
VERTEX
5
3f5
8
Layer1
10
96.7560
20
1.5300
30
0.0
0
VERTEX
5
3f6
8
Layer1
10
96.7560
20
2.7300
30
0.0
0
SEQEND
5
3f7
8
Layer1
0
POLYLINE
5
3f8
8
Layer1
66
1
10
0.0
20
0.0
30
0.0
70
1
0
VERTEX
5
3f9
8
Layer1
10
144.3810
20
2.7300
30
0.0
0
VERTEX
5
3fa
8
Layer1
10
146.2060
20
2.7300
30
0.0
0
VERTEX
5
3fb
8
Layer1
10
146.2060
20
3.5300
30
0.0
0
VERTEX
5
3fc
8
Layer1
10
146.9810
20
3.5300
30
0.0
0
VERTEX
5
3fd
8
Layer1
10
146.9810
20
3.5000
30
0.0
0
VERTEX
5
3fe
8
Layer1
10
147.7810
20
3.5000
30
0.0
0
VERTEX
5
3ff
8
Layer1
10
147.7810
20
2.5000
30
0.0
0
VERTEX
5
400
8
Layer1
10
161.7810
20
2.5000
30
0.0
0
VERTEX
5
401
8
Layer1
10
161.7810
20
3.5000
30
0.0
0
VERTEX
5
402
8
Layer1
10
162.5810
20
3.5000
30
0.0
0
VERTEX
5
403
8
Layer1
10
162.5810
20
3.5300
30
0.0
0
VERTEX
5
404
8
Layer1
10
163.3560
20
3.5300
30
0.0
0
VERTEX
5
405
8
Layer1
10
163.3560
20
2.7300
30
0.0
0
VERTEX
5
406
8
Layer1
10
165.1810
20
2.7300
30
0.0
0
VERTEX
5
407
8
Layer1
10
165.1810
20
1.5300
30
0.0
0
VERTEX
5
408
8
Layer1
10
168.1810
20
1.5300
30
0.0
0
VERTEX
5
409
8
Layer1
10
168.1810
20
2.7300
30
0.0
0
VERTEX
5
40a
8
Layer1
10
170.0060
20
2.7300
30
0.0
0
VERTEX
5
40b
8
Layer1
10
170.0060
20
9.0000
30
0.0
0
VERTEX
5
40c
8
Layer1
10
170.8810
20
9.0000
30
0.0
0
VERTEX
5
40d
8
Layer1
10
170.8810
20
11.8000
30
0.0
0
VERTEX
5
40e
8
Layer1
10
170.0060
20
11.8000
30
0.0
0
VERTEX
5
40f
8
Layer1
10
170.0060
20
15.0300
30
0.0
0
VERTEX
5
410
8
Layer1
10
163.3560
20
15.0300
30
0.0
0
VERTEX
5
411
8
Layer1
10
163.3560
20
14.2300
30
0.0
0
VERTEX
5
412
8
Layer1
10
162.5810
20
14.2300
30
0.0
0
VERTEX
5
413
8
Layer1
10
162.5810
20
15.5000
30
0.0
0
VERTEX
5
414
8
Layer1
10
161.7810
20
15.5000
30
0.0
0
VERTEX
5
415
8
Layer1
10
161.7810
20
16.5000
30
0.0
0
VERTEX
5
416
8
Layer1
10
147.7810
20
16.5000
30
0.0
0
VERTEX
5
417
8
Layer1
10
147.7810
20
15.5000
30
0.0
0
VERTEX
5
418
8
Layer1
10
146.9810
20
15.5000
30
0.0
0
VERTEX
5
419
8
Layer1
10
146.9810
20
14.2300
30
0.0
0
VERTEX
5
41a
8
Layer1
10
146.2060
20
14.2300
30
0.0
0
VERTEX
5
41b
8
Layer1
10
146.2060
20
15.0300
30
0.0
0
VERTEX
5
41c
8
Layer1
10
139.5560
20
15.0300
30
0.0
0
VERTEX
5
41d
8
Layer1
10
139.5560
20
11.8000
30
0.0
0
VERTEX
5
41e
8
Layer1
10
138.6810
20
11.8000
30
0.0
0
VERTEX
5
41f
8
Layer1
10
138.6810
20
9.0000
30
0.0
0
VERTEX
5
420
8
Layer1
10
139.5560
20
9.0000
30
0.0
0
VERTEX
5
421
8
Layer1
10
139.5560
20
2.7300
30
0.0
0
VERTEX
5
422
8
Layer1
10
141.3810
20
2.7300
30
0.0
0
VERTEX
5
423
8
Layer1
10
141.3810
20
1.5300
30
0.0
0
VERTEX
5
424
8
Layer1
10
144.3810
20
1.5300
30
0.0
0
VERTEX
5
425
8
Layer1
10
144.3810
20
2.7300
30
0.0
0
SEQEND
5
426
8
Layer1
0
POLYLINE
5
427
8
Layer1
66
1
10
0.0
20
0.0
30
0.0
70
1
0
VERTEX
5
428
8
Layer1
10
199.8810
20
3.5000
30
0.0
0
VERTEX
5
429
8
Layer1
10
200.6810
20
3.5000
30
0.0
0
VERTEX
5
42a
8
Layer1
10
200.6810
20
7.0000
30
0.0
0
VERTEX
5
42b
8
Layer1
10
199.8810
20
7.0000
30
0.0
0
VERTEX
5
42c
8
Layer1
10
199.8810
20
12.0000
30
0.0
0
VERTEX
5
42d
8
Layer1
10
200.6810
20
12.0000
30
0.0
0
VERTEX
5
42e
8
Layer1
10
200.6810
20
15.5000
30
0.0
0
VERTEX
5
42f
8
Layer1
10
199.8810
20
15.5000
30
0.0
0
VERTEX
5
430
8
Layer1
10
199.8810
20
16.5000
30
0.0
0
VERTEX
5
431
8
Layer1
10
185.8810
20
16.5000
30
0.0
0
VERTEX
5
432
8
Layer1
10
185.8810
20
15.5000
30
0.0
0
VERTEX
5
433
8
Layer1
10
185.0810
20
15.5000
30
0.0
0
VERTEX
5
434
8
Layer1
10
185.0810
20
12.0000
30
0.0
0
VERTEX
5
435
8
Layer1
10
185.8810
20
12.0000
30
0.0
0
VERTEX
5
436
8
Layer1
10
185.8810
20
7.0000
30
0.0
0
VERTEX
5
437
8
Layer1
10
185.0810
20
7.0000
30
0.0
0
VERTEX
5
438
8
Layer1
10
185.0810
20
3.5000
30
0.0
0
VERTEX
5
439
8
Layer1
10
185.8810
20
3.5000
30
0.0
0
VERTEX
5
43a
8
Layer1
10
185.8810
20
2.5000
30
0.0
0
VERTEX
5
43b
8
Layer1
10
199.8810
20
2.5000
30
0.0
0
VERTEX
5
43c
8
Layer1
10
199.8810
20
3.5000
30
0.0
0
SEQEND
5
43d
8
Layer1
0
POLYLINE
5
43e
8
Layer1
66
1
10
0.0
20
0.0
30
0.0
70
1
0
VERTEX
5
43f
8
Layer1
10
223.6940
20
3.5000
30
0.0
0
VERTEX
5
440
8
Layer1
10
224.4940
20
3.5000
30
0.0
0
VERTEX
5
441
8
Layer1
10
224.4940
20
7.0000
30
0.0
0
VERTEX
5
442
8
Layer1
10
223.6940
20
7.0000
30
0.0
0
VERTEX
5
443
8
Layer1
10
223.6940
20
12.0000
30
0.0
0
VERTEX
5
444
8
Layer1
10
224.4940
20
12.0000
30
0.0
0
VERTEX
5
445
8
Layer1
10
224.4940
20
15.5000
30
0.0
0
VERTEX
5
446
8
Layer1
10
223.6940
20
15.5000
30
0.0
0
VERTEX
5
447
8
Layer1
10
223.6940
20
16.5000
30
0.0
0
VERTEX
5
448
8
Layer1
10
209.6940
20
16.5000
30
0.0
0
VERTEX
5
449
8
Layer1
10
209.6940
20
15.5000
30
0.0
0
VERTEX
5
44a
8
Layer1
10
208.8940
20
15.5000
30
0.0
0
VERTEX
5
44b
8
Layer1
10
208.8940
20
12.0000
30
0.0
0
VERTEX
5
44c
8
Layer1
10
209.6940
20
12.0000
30
0.0
0
VERTEX
5
44d
8
Layer1
10
209.6940
20
7.0000
30
0.0
0
VERTEX
5
44e
8
Layer1
10
208.8940
20
7.0000
30
0.0
0
VERTEX
5
44f
8
Layer1
10
208.8940
20
3.5000
30
0.0
0
VERTEX
5
450
8
Layer1
10
209.6940
20
3.5000
30
0.0
0
VERTEX
5
451
8
Layer1
10
209.6940
20
2.5000
30
0.0
0
VERTEX
5
452
8
Layer1
10
223.6940
20
2.5000
30
0.0
0
VERTEX
5
453
8
Layer1
10
223.6940
20
3.5000
30
0.0
0
SEQEND
5
454
8
Layer1
0
POLYLINE
5
455
8
Layer1
66
1
10
0.0
20
0.0
30
0.0
70
1
0
VERTEX
5
456
8
Layer1
10
247.5060
20
3.5000
30
0.0
0
VERTEX
5
457
8
Layer1
10
248.3060
20
3.5000
30
0.0
0
VERTEX
5
458
8
Layer1
10
248.3060
20
7.0000
30
0.0
0
VERTEX
5
459
8
Layer1
10
247.5060
20
7.0000
30
0.0
0
VERTEX
5
45a
8
Layer1
10
247.5060
20
12.0000
30
0.0
0
VERTEX
5
45b
8
Layer1
10
248.3060
20
12.0000
30
0.0
0
VERTEX
5
45c
8
Layer1
10
248.3060
20
15.5000
30
0.0
0
VERTEX
5
45d
8
Layer1
10
247.5060
20
15.5000
30
0.0
0
VERTEX
5
45e
8
Layer1
10
247.5060
20
16.5000
30
0.0
0
VERTEX
5
45f
8
Layer1
10
233.5060
20
16.5000
30
0.0
0
VERTEX
5
460
8
Layer1
10
233.5060
20
15.5000
30
0.0
0
VERTEX
5
461
8
Layer1
10
232.7060
20
15.5000
30
0.0
0
VERTEX
5
462
8
Layer1
10
232.7060
20
12.0000
30
0.0
0
VERTEX
5
463
8
Layer1
10
233.5060
20
12.0000
30
0.0
0
VERTEX
5
464
8
Layer1
10
233.5060
20
7.0000
30
0.0
0
VERTEX
5
465
8
Layer1
10
232.7060
20
7.0000
30
0.0
0
VERTEX
5
466
8
Layer1
10
232.7060
20
3.5000
30
0.0
0
VERTEX
5
467
8
Layer1
10
233.5060
20
3.5000
30
0.0
0
VERTEX
5
468
8
Layer1
10
233.5060
20
2.5000
30
0.0
0
VERTEX
5
469
8
Layer1
10
247.5060
20
2.5000
30
0.0
0
VERTEX
5
46a
8
Layer1
10
247.5060
20
3.5000
30
0.0
0
SEQEND
5
46b
8
Layer1
0
ENDSEC
0
EOF
